<svg width="48" height="48" xmlns="http://www.w3.org/2000/svg" xmlns:xlink="http://www.w3.org/1999/xlink" xml:space="preserve" overflow="hidden"><g transform="translate(-616 -336)"><g><path d="M640.396 336.339 624.847 341.488 627.63 343.494 643.198 338.339ZM627.63 343.494 624.847 341.488 624.847 375.969 627.63 378.242ZM643.758 338.738 628.326 343.848 628.326 378.81 631.109 381.082 631.109 345.936 646.638 340.794ZM647.257 341.235 631.805 346.352 631.805 364.781 631.805 381.65 634.588 383.922 655.32 377.057 655.32 360.004 652.537 357.916 650.137 358.711 650.137 358.065 651.841 357.5 650.137 356.222 650.137 343.29ZM647.257 344.244 647.257 359.664 634.588 363.86 634.588 363.792 634.588 348.439ZM646.638 345.182 643.758 346.135 643.758 357.168 635.284 359.974 635.284 362.983 646.592 359.238 646.638 359.275 646.638 359.225 646.638 356.216ZM643.198 346.321 640.396 347.249 640.396 354.756 640.41 354.765 635.285 356.462 635.285 359.39 643.2 356.769 643.2 353.841ZM652.537 360.925 652.537 374.785 634.588 380.728 634.588 369.618 634.588 367.223 634.588 366.869 650.137 361.72ZM651.841 361.883 649.058 362.805 649.058 371.945 635.284 376.507 635.284 379.7 651.841 374.217ZM648.362 363.035 645.579 363.957 645.579 369.105 635.284 372.514 635.284 375.708 648.362 371.377Z" fill="#F2F2F2" fill-rule="nonzero" fill-opacity="1"/></g></g></svg>