<svg width="32" height="32" viewBox="0 0 32 32" fill="none" xmlns="http://www.w3.org/2000/svg">
<g clip-path="url(#clip0_250_171)">
<path d="M2 28C2 28.2812 2.05208 28.5417 2.15625 28.7812C2.26042 29.0208 2.40104 29.2292 2.57812 29.4062C2.75521 29.5833 2.96875 29.7292 3.21875 29.8438C3.46875 29.9583 3.72917 30.0104 4 30H14L18.0156 32H4C3.44792 32 2.93229 31.8958 2.45312 31.6875C1.97396 31.4792 1.54688 31.1927 1.17188 30.8281C0.796875 30.4635 0.510417 30.0417 0.3125 29.5625C0.114583 29.0833 0.0104167 28.5625 0 28V4C0 3.48958 0.109375 2.99479 0.328125 2.51562C0.546875 2.03646 0.84375 1.60938 1.21875 1.23438C1.59375 0.859375 2.02083 0.5625 2.5 0.34375C2.97917 0.125 3.47917 0.0104167 4 0H26V10.6406L24 9.64062V2H4C3.76042 2 3.52083 2.05729 3.28125 2.17188C3.04167 2.28646 2.82812 2.44271 2.64062 2.64062C2.45312 2.83854 2.30208 3.05208 2.1875 3.28125C2.07292 3.51042 2.01042 3.75 2 4V24.5625C2.30208 24.3854 2.61979 24.25 2.95312 24.1562C3.28646 24.0625 3.63542 24.0104 4 24H12V26H4C3.71875 26 3.45833 26.0521 3.21875 26.1562C2.97917 26.2604 2.77083 26.401 2.59375 26.5781C2.41667 26.7552 2.27083 26.9688 2.15625 27.2188C2.04167 27.4688 1.98958 27.7292 2 28ZM32 15.8594V27.7656L23 32.25L14 27.7656V15.8594L23 11.375L32 15.8594ZM23 13.6094L17.2344 16.4844L23 19.3594L28.7656 16.4844L23 13.6094ZM16 26.5312L22 29.5156V21.0938L16 18.0938V26.5312ZM30 26.5312V18.0938L24 21.0938V29.5156L30 26.5312Z" fill="#32ACFF"/>
</g>
<defs>
<clipPath id="clip0_250_171">
<rect width="32" height="32" fill="white"/>
</clipPath>
</defs>
</svg>
