<svg width="48" height="48" viewBox="0 0 48 48" fill="none" xmlns="http://www.w3.org/2000/svg">
<path d="M40.5 3H7.5C5.90923 3.00174 4.38412 3.63444 3.25928 4.75928C2.13444 5.88412 1.50174 7.40923 1.5 9V39C1.50174 40.5908 2.13444 42.1159 3.25928 43.2407C4.38412 44.3656 5.90923 44.9983 7.5 45H40.5C42.0908 44.9983 43.6159 44.3656 44.7407 43.2407C45.8656 42.1159 46.4983 40.5908 46.5 39V9C46.4983 7.40923 45.8656 5.88412 44.7407 4.75928C43.6159 3.63444 42.0908 3.00174 40.5 3ZM9 24C8.68923 24 8.38613 23.9035 8.13258 23.7238C7.87904 23.544 7.68758 23.29 7.58465 22.9968C7.48173 22.7036 7.47242 22.3856 7.55802 22.0868C7.64362 21.7881 7.8199 21.5233 8.0625 21.3291L14.0991 16.5L8.0625 11.6709C7.90861 11.5478 7.78047 11.3956 7.68541 11.223C7.59034 11.0503 7.53021 10.8607 7.50845 10.6648C7.48668 10.4689 7.50371 10.2707 7.55856 10.0814C7.61341 9.89209 7.70501 9.71546 7.82812 9.56156C7.95124 9.40767 8.10346 9.27953 8.27609 9.18447C8.44873 9.0894 8.6384 9.02927 8.83427 9.00751C9.03015 8.98575 9.22839 9.00277 9.41768 9.05763C9.60697 9.11248 9.78361 9.20407 9.9375 9.32719L17.4375 15.3272C17.6134 15.4677 17.7554 15.646 17.8529 15.8489C17.9505 16.0517 18.0012 16.274 18.0012 16.4991C18.0012 16.7242 17.9505 16.9464 17.8529 17.1493C17.7554 17.3521 17.6134 17.5304 17.4375 17.6709L9.9375 23.6709C9.67146 23.8839 9.34081 24 9 24ZM24 24H18C17.6022 24 17.2206 23.842 16.9393 23.5607C16.658 23.2794 16.5 22.8978 16.5 22.5C16.5 22.1022 16.658 21.7206 16.9393 21.4393C17.2206 21.158 17.6022 21 18 21H24C24.3978 21 24.7794 21.158 25.0607 21.4393C25.342 21.7206 25.5 22.1022 25.5 22.5C25.5 22.8978 25.342 23.2794 25.0607 23.5607C24.7794 23.842 24.3978 24 24 24Z" fill="#32ACFF"/>
</svg>
