<svg width="40" height="40" viewBox="0 0 40 40" fill="none" xmlns="http://www.w3.org/2000/svg">
<path d="M0 7.5C0 6.17392 0.526784 4.90215 1.46447 3.96447C2.40215 3.02678 3.67392 2.5 5 2.5H35C36.3261 2.5 37.5979 3.02678 38.5355 3.96447C39.4732 4.90215 40 6.17392 40 7.5V32.5C40 33.8261 39.4732 35.0979 38.5355 36.0355C37.5979 36.9732 36.3261 37.5 35 37.5H5C3.67392 37.5 2.40215 36.9732 1.46447 36.0355C0.526784 35.0979 0 33.8261 0 32.5V7.5ZM23.75 21.25H16.25C15.9185 21.25 15.6005 21.3817 15.3661 21.6161C15.1317 21.8505 15 22.1685 15 22.5C15 22.8315 15.1317 23.1495 15.3661 23.3839C15.6005 23.6183 15.9185 23.75 16.25 23.75H23.75C24.0815 23.75 24.3995 23.6183 24.6339 23.3839C24.8683 23.1495 25 22.8315 25 22.5C25 22.1685 24.8683 21.8505 24.6339 21.6161C24.3995 21.3817 24.0815 21.25 23.75 21.25ZM7.865 20.365C7.74878 20.4812 7.65659 20.6192 7.59369 20.771C7.53079 20.9229 7.49842 21.0856 7.49842 21.25C7.49842 21.4144 7.53079 21.5771 7.59369 21.729C7.65659 21.8808 7.74878 22.0188 7.865 22.135C8.09972 22.3697 8.41806 22.5016 8.75 22.5016C8.91436 22.5016 9.07711 22.4692 9.22896 22.4063C9.38081 22.3434 9.51878 22.2512 9.635 22.135L14.635 17.135C14.7514 17.0189 14.8438 16.8809 14.9068 16.7291C14.9698 16.5772 15.0022 16.4144 15.0022 16.25C15.0022 16.0856 14.9698 15.9228 14.9068 15.7709C14.8438 15.6191 14.7514 15.4811 14.635 15.365L9.635 10.365C9.51878 10.2488 9.38081 10.1566 9.22896 10.0937C9.07711 10.0308 8.91436 9.99842 8.75 9.99842C8.58564 9.99842 8.42289 10.0308 8.27104 10.0937C8.11919 10.1566 7.98122 10.2488 7.865 10.365C7.74878 10.4812 7.65659 10.6192 7.59369 10.771C7.53079 10.9229 7.49842 11.0856 7.49842 11.25C7.49842 11.4144 7.53079 11.5771 7.59369 11.729C7.65659 11.8808 7.74878 12.0188 7.865 12.135L11.9825 16.25L7.865 20.365Z" fill="currentColor"/>
</svg>
