<svg width="22" height="16" viewBox="0 0 22 16" fill="none" xmlns="http://www.w3.org/2000/svg">
<path d="M13.4531 1.67344L10.5703 3.34688L7.67531 1.67344L10.5703 0L13.4531 1.67344ZM17.8444 4.21359L14.9494 5.88703L17.8444 7.56047L20.7272 5.88703L17.8444 4.21359ZM4.04484 7.99359L6.93984 9.66703L9.82266 7.99359L6.93984 6.32016L4.04484 7.99359ZM10.5848 4.21687L7.68984 5.89031L10.5848 7.56375L13.4677 5.89031L10.5848 4.21687ZM0 9.86344L2.90625 11.5364V8.20828L0 6.53719V9.86531V9.86344ZM17.4844 8.64469L14.5781 10.3177V13.643L17.4844 11.9714V8.64469ZM6.93234 2.11031L4.03734 3.78375L6.93234 5.45719L9.81516 3.78375L6.93234 2.11031ZM3.65625 11.97L6.5625 13.643V10.3177L3.65625 8.64469V11.9728V11.97ZM14.2223 6.32391L11.3273 7.99734L14.2223 9.67078L17.1052 7.99734L14.2223 6.32391ZM10.2188 12.427L7.3125 10.7536V14.0817L10.2188 15.7552V12.427ZM13.8281 10.755L10.9688 12.427V15.7523L13.8281 14.0808V10.755ZM14.2064 2.10656L11.3114 3.78L14.2064 5.45344L17.0892 3.78L14.2064 2.10656ZM3.30328 4.21359L0.407813 5.88703L3.30281 7.56047L6.18563 5.88703L3.30328 4.21359ZM21.0938 6.54469L18.2344 8.21625V11.5416L21.0938 9.87V6.54469ZM7.68234 10.1039L10.5773 11.7773L13.4602 10.1039L10.5773 8.43047L7.68234 10.1039Z" fill="currentColor"/>
</svg>
