<svg width="32" height="33" viewBox="0 0 32 33" fill="none" xmlns="http://www.w3.org/2000/svg">
<path fill-rule="evenodd" clip-rule="evenodd" d="M18.9795 2.97204C18.2195 -0.156043 13.7795 -0.156043 13.0195 2.97204C12.906 3.44208 12.6835 3.87863 12.3699 4.24615C12.0564 4.61367 11.6608 4.90178 11.2152 5.08704C10.7696 5.27229 10.2867 5.34946 9.80577 5.31226C9.32484 5.27506 8.85946 5.12454 8.4475 4.87295C5.7035 3.19662 2.5635 6.34475 4.2355 9.09585C5.3155 10.8724 4.3575 13.1904 2.3415 13.6817C-0.7805 14.4417 -0.7805 18.8952 2.3415 19.6531C2.81046 19.767 3.24595 19.9904 3.61252 20.3049C3.97909 20.6195 4.26638 21.0165 4.45098 21.4634C4.63558 21.9104 4.71228 22.3948 4.67484 22.8771C4.63739 23.3594 4.48686 23.826 4.2355 24.239C2.5635 26.9901 5.7035 30.1382 8.4475 28.4619C8.85938 28.2099 9.3248 28.0589 9.80587 28.0214C10.2869 27.9838 10.77 28.0608 11.2159 28.2458C11.6617 28.4309 12.0576 28.7189 12.3714 29.0865C12.6851 29.454 12.9079 29.8906 13.0215 30.3608C13.7795 33.4909 18.2215 33.4909 18.9775 30.3608C19.0915 29.8908 19.3145 29.4545 19.6283 29.0873C19.9422 28.72 20.338 28.4321 20.7837 28.2471C21.2294 28.0621 21.7123 27.9851 22.1932 28.0224C22.6742 28.0597 23.1395 28.2103 23.5515 28.4619C26.2955 30.1382 29.4355 26.9901 27.7635 24.239C27.5126 23.8259 27.3624 23.3593 27.3252 22.8772C27.288 22.395 27.3648 21.9108 27.5493 21.464C27.7339 21.0171 28.021 20.6203 28.3873 20.3056C28.7536 19.991 29.1888 19.7674 29.6575 19.6531C32.7795 18.8932 32.7795 14.4397 29.6575 13.6817C29.1885 13.5678 28.753 13.3445 28.3865 13.0299C28.0199 12.7153 27.7326 12.3183 27.548 11.8714C27.3634 11.4244 27.2867 10.9401 27.3242 10.4577C27.3616 9.97542 27.5121 9.5088 27.7635 9.09585C29.4355 6.34475 26.2955 3.19662 23.5515 4.87295C23.1396 5.12496 22.6742 5.27588 22.1931 5.31342C21.7121 5.35096 21.229 5.27406 20.7831 5.08898C20.3373 4.9039 19.9414 4.61587 19.6276 4.24835C19.3139 3.88083 19.0911 3.44421 18.9775 2.97404L18.9795 2.97204ZM15.9995 22.6829C17.5908 22.6829 19.1169 22.0492 20.2421 20.921C21.3674 19.7929 21.9995 18.2628 21.9995 16.6674C21.9995 15.072 21.3674 13.5419 20.2421 12.4138C19.1169 11.2856 17.5908 10.6519 15.9995 10.6519C14.4082 10.6519 12.8821 11.2856 11.7569 12.4138C10.6316 13.5419 9.9995 15.072 9.9995 16.6674C9.9995 18.2628 10.6316 19.7929 11.7569 20.921C12.8821 22.0492 14.4082 22.6829 15.9995 22.6829Z" fill="currentColor"/>
</svg>
