<svg width="22" height="22" viewBox="0 0 22 22" fill="none" xmlns="http://www.w3.org/2000/svg">
<path d="M0 8V14H6.5V8H0ZM0 15.5V18.25C0 19.2446 0.395088 20.1984 1.09835 20.9017C1.80161 21.6049 2.75544 22 3.75 22H6.5V15.5H0ZM8 22H14V15.5H8V22ZM15.5 22H18.25C19.2446 22 20.1984 21.6049 20.9017 20.9017C21.6049 20.1984 22 19.2446 22 18.25V15.5H15.5V22ZM22 14V8H15.5V14H22ZM22 6.5V3.75C22 2.75544 21.6049 1.80161 20.9017 1.09835C20.1984 0.395088 19.2446 0 18.25 0H15.5V6.5H22ZM14 0H8V6.5H14V0ZM14 8V14H8V8H14Z" fill="currentColor"/>
</svg>
