<svg width="48" height="48" viewBox="0 0 48 48" fill="none" xmlns="http://www.w3.org/2000/svg">
<path d="M24 44C19.3667 42.8333 15.5413 40.1747 12.524 36.024C9.50667 31.8733 7.99867 27.2653 8 22.2V10L24 4L40 10V22.2C40 25.0333 39.5167 27.7587 38.55 30.376C37.5833 32.9933 36.2 35.3013 34.4 37.3L28 30.9C27.4 31.2667 26.7587 31.542 26.076 31.726C25.3933 31.91 24.7013 32.0013 24 32C21.8 32 19.9167 31.2167 18.35 29.65C16.7833 28.0833 16 26.2 16 24C16 21.8 16.7833 19.9167 18.35 18.35C19.9167 16.7833 21.8 16 24 16C26.2 16 28.0833 16.7833 29.65 18.35C31.2167 19.9167 32 21.8 32 24C32 24.7333 31.9087 25.442 31.726 26.126C31.5433 26.81 31.268 27.468 30.9 28.1L33.9 31.1C34.5667 29.7333 35.0833 28.3 35.45 26.8C35.8167 25.3 36 23.7667 36 22.2V12.75L24 8.25L12 12.75V22.2C12 26.2333 13.1333 29.9 15.4 33.2C17.6667 36.5 20.5333 38.7 24 39.8C24.8667 39.5333 25.692 39.192 26.476 38.776C27.26 38.36 28.0347 37.868 28.8 37.3L31.6 40.1C30.5 41 29.3087 41.7833 28.026 42.45C26.7433 43.1167 25.4013 43.6333 24 44ZM24 28C25.1 28 26.042 27.6087 26.826 26.826C27.61 26.0433 28.0013 25.1013 28 24C28 22.9 27.6087 21.9587 26.826 21.176C26.0433 20.3933 25.1013 20.0013 24 20C22.9 20 21.9587 20.392 21.176 21.176C20.3933 21.96 20.0013 22.9013 20 24C20 25.1 20.392 26.042 21.176 26.826C21.96 27.61 22.9013 28.0013 24 28Z" fill="#32ACFF"/>
</svg>
