<svg width="22" height="16" viewBox="0 0 22 16" fill="none" xmlns="http://www.w3.org/2000/svg">
<path d="M1 10.5052C1 11.0961 1.1164 11.6813 1.34254 12.2273C1.56869 12.7732 1.90016 13.2693 2.31802 13.6872C3.16193 14.5311 4.30653 15.0052 5.5 15.0052H17.5C18.386 15.0068 19.2396 14.6723 19.8886 14.0693C20.5377 13.4663 20.9339 12.6395 20.9973 11.7558C21.0608 10.8721 20.7867 9.99726 20.2304 9.30769C19.6742 8.61812 18.8771 8.16517 18 8.0402C18.0098 6.33896 17.3996 4.69239 16.2837 3.40829C15.1677 2.12418 13.6223 1.29044 11.9363 1.06291C10.2503 0.835372 8.5392 1.22963 7.12277 2.17197C5.70633 3.11431 4.68156 4.54023 4.24 6.1832C3.30512 6.45621 2.48398 7.02502 1.8998 7.8043C1.31562 8.58357 0.999892 9.53127 1 10.5052Z" stroke="currentColor" stroke-width="2" stroke-linejoin="round"/>
<path d="M11 7.00488V11.0049M9 9.00488H13" stroke="currentColor" stroke-width="2" stroke-linecap="round" stroke-linejoin="round"/>
</svg>
