<svg width="42" height="41" viewBox="0 0 42 41" fill="none" xmlns="http://www.w3.org/2000/svg">
<path d="M13.7219 32.3636C13.7219 32.5295 13.5316 32.6621 13.2918 32.6621C13.0188 32.687 12.8286 32.5543 12.8286 32.3636C12.8286 32.1978 13.0188 32.0651 13.2587 32.0651C13.5068 32.0402 13.7219 32.1729 13.7219 32.3636ZM11.1495 31.9904C11.0916 32.1563 11.2571 32.347 11.5052 32.3968C11.7203 32.4797 11.9684 32.3968 12.018 32.2309C12.0676 32.0651 11.9105 31.8743 11.6624 31.7997C11.4473 31.7417 11.2074 31.8246 11.1495 31.9904ZM14.8054 31.8495C14.5655 31.9075 14.4001 32.0651 14.4249 32.2558C14.4497 32.4216 14.6648 32.5295 14.9129 32.4714C15.1528 32.4134 15.3182 32.2558 15.2934 32.0899C15.2686 31.9324 15.0453 31.8246 14.8054 31.8495ZM20.2478 0.0722656C8.77571 0.0722656 0 8.80436 0 20.3062C0 29.5027 5.77328 37.3723 14.0196 40.1421C15.0783 40.3328 15.4505 39.6777 15.4505 39.1386C15.4505 38.6245 15.4257 35.7884 15.4257 34.047C15.4257 34.047 9.63591 35.2909 8.42005 31.5758C8.42005 31.5758 7.47714 29.1627 6.12067 28.5407C6.12067 28.5407 4.22657 27.2388 6.25301 27.2637C6.25301 27.2637 8.31253 27.4295 9.44568 29.4032C11.2571 32.6041 14.2926 31.6836 15.4754 31.1363C15.6656 29.8095 16.2032 28.889 16.7987 28.3417C12.1752 27.8276 7.51022 27.1559 7.51022 19.1784C7.51022 16.8979 8.13883 15.7535 9.46222 14.2941C9.24717 13.755 8.54412 11.5326 9.67727 8.66339C11.4059 8.12437 15.3844 10.9024 15.3844 10.9024C17.0386 10.438 18.8169 10.1975 20.5787 10.1975C22.3404 10.1975 24.1187 10.438 25.773 10.9024C25.773 10.9024 29.7514 8.11608 31.4801 8.66339C32.6132 11.5409 31.9102 13.755 31.6951 14.2941C33.0185 15.7618 33.8291 16.9062 33.8291 19.1784C33.8291 27.1807 28.9574 27.8193 24.3338 28.3417C25.0947 28.9968 25.7399 30.2407 25.7399 32.1895C25.7399 34.9841 25.7151 38.4421 25.7151 39.1221C25.7151 39.6611 26.0955 40.3162 27.146 40.1255C35.4172 37.3723 41.025 29.5027 41.025 20.3062C41.025 8.80436 31.7199 0.0722656 20.2478 0.0722656ZM8.03958 28.6734C7.93205 28.7563 7.95687 28.9471 8.09748 29.1046C8.22982 29.2373 8.42005 29.2953 8.52758 29.1875C8.6351 29.1046 8.61029 28.9139 8.46968 28.7563C8.33734 28.6236 8.1471 28.5656 8.03958 28.6734ZM7.14629 28.0017C7.08839 28.1095 7.1711 28.2422 7.33653 28.3251C7.46887 28.408 7.63429 28.3832 7.69219 28.2671C7.75009 28.1593 7.66738 28.0266 7.50195 27.9437C7.33653 27.8939 7.20419 27.9188 7.14629 28.0017ZM9.82615 30.9539C9.69381 31.0617 9.74344 31.3104 9.93368 31.468C10.1239 31.6587 10.3638 31.6836 10.4713 31.5509C10.5788 31.4431 10.5292 31.1943 10.3638 31.0368C10.1818 30.8461 9.93368 30.8212 9.82615 30.9539ZM8.88324 29.7349C8.7509 29.8178 8.7509 30.0334 8.88324 30.2241C9.01558 30.4148 9.2389 30.4978 9.34642 30.4148C9.47876 30.307 9.47876 30.0914 9.34642 29.9007C9.23063 29.71 9.01558 29.6271 8.88324 29.7349Z" fill="currentColor"/>
</svg>
