<svg width="21" height="19" viewBox="0 0 21 19" fill="none" xmlns="http://www.w3.org/2000/svg">
<path d="M0.000887096 9.37789C0.00287245 7.48883 0.754178 5.67771 2.08994 4.34195C3.42571 3.00618 5.23683 2.25487 7.12589 2.25289H16.4071L16.0771 1.92383C15.9725 1.81918 15.8895 1.69495 15.8328 1.55822C15.7762 1.42149 15.7471 1.27494 15.7471 1.12695C15.7471 0.978958 15.7762 0.832414 15.8328 0.695686C15.8895 0.558958 15.9725 0.434724 16.0771 0.330076C16.1818 0.225429 16.306 0.142419 16.4427 0.085784C16.5795 0.0291494 16.726 0 16.874 0C17.022 0 17.1685 0.0291494 17.3053 0.085784C17.442 0.142419 17.5662 0.225429 17.6709 0.330076L19.9209 2.58008C20.0258 2.68459 20.109 2.80878 20.1658 2.94553C20.2225 3.08228 20.2518 3.22889 20.2518 3.37695C20.2518 3.52502 20.2225 3.67163 20.1658 3.80837C20.109 3.94512 20.0258 4.06931 19.9209 4.17383L17.6709 6.42383C17.4595 6.63517 17.1729 6.7539 16.874 6.7539C16.5751 6.7539 16.2885 6.63517 16.0771 6.42383C15.8658 6.21248 15.7471 5.92584 15.7471 5.62695C15.7471 5.32807 15.8658 5.04142 16.0771 4.83008L16.4071 4.50289H7.12589C5.83341 4.50438 4.5943 5.01847 3.68039 5.93239C2.76647 6.8463 2.25238 8.08542 2.25089 9.37789C2.25089 9.67626 2.13236 9.96241 1.92138 10.1734C1.7104 10.3844 1.42426 10.5029 1.12589 10.5029C0.827519 10.5029 0.54137 10.3844 0.330392 10.1734C0.119414 9.96241 0.000887096 9.67626 0.000887096 9.37789ZM19.1259 8.25289C18.8275 8.25289 18.5414 8.37142 18.3304 8.58239C18.1194 8.79337 18.0009 9.07952 18.0009 9.37789C17.9994 10.6704 17.4853 11.9095 16.5714 12.8234C15.6575 13.7373 14.4184 14.2514 13.1259 14.2529H3.84464L4.17464 13.9238C4.27928 13.8192 4.36229 13.6949 4.41893 13.5582C4.47556 13.4215 4.50471 13.2749 4.50471 13.127C4.50471 12.979 4.47556 12.8324 4.41893 12.6957C4.36229 12.559 4.27928 12.4347 4.17464 12.3301C4.06999 12.2254 3.94576 12.1424 3.80903 12.0858C3.6723 12.0292 3.52576 12 3.37776 12C3.22977 12 3.08322 12.0292 2.9465 12.0858C2.80977 12.1424 2.68553 12.2254 2.58089 12.3301L0.330887 14.5801C0.226007 14.6846 0.142791 14.8088 0.0860095 14.9455C0.0292285 15.0823 0 15.2289 0 15.377C0 15.525 0.0292285 15.6716 0.0860095 15.8084C0.142791 15.9451 0.226007 16.0693 0.330887 16.1738L2.58089 18.4238C2.68553 18.5285 2.80977 18.6115 2.9465 18.6681C3.08322 18.7248 3.22977 18.7539 3.37776 18.7539C3.52576 18.7539 3.6723 18.7248 3.80903 18.6681C3.94576 18.6115 4.06999 18.5285 4.17464 18.4238C4.27928 18.3192 4.36229 18.1949 4.41893 18.0582C4.47556 17.9215 4.50471 17.7749 4.50471 17.627C4.50471 17.479 4.47556 17.3324 4.41893 17.1957C4.36229 17.059 4.27928 16.9347 4.17464 16.8301L3.84464 16.5029H13.1259C15.0149 16.5009 16.8261 15.7496 18.1618 14.4138C19.4976 13.0781 20.2489 11.2669 20.2509 9.37789C20.2509 9.07952 20.1324 8.79337 19.9214 8.58239C19.7104 8.37142 19.4243 8.25289 19.1259 8.25289Z" fill="currentColor"/>
</svg>
