<svg width="152" height="152" xmlns="http://www.w3.org/2000/svg" xmlns:xlink="http://www.w3.org/1999/xlink" xml:space="preserve" overflow="hidden"><g transform="translate(-498 -416)"><g><g><g><g><path d="M76.3267 12.5833 35.2072 26.1994 42.5669 31.5043 83.7367 17.8714ZM42.5669 31.5043 35.2072 26.2 35.2072 117.386 42.5669 123.395ZM85.2181 18.9285 44.4072 32.4424 44.4072 124.897 51.7669 130.906 51.7669 37.962 92.8345 24.3633ZM94.4706 25.5309 53.6066 39.0618 53.6066 87.7986 53.6066 132.407 60.9669 138.417 115.793 120.263 115.793 75.164 108.433 69.6443 102.087 71.7454 102.087 70.0366 106.593 68.5446 102.087 65.1647 102.087 30.9662ZM94.4706 33.488 94.4706 74.2678 60.9669 85.3616 60.9669 85.1819 60.9669 44.5818ZM92.8345 35.9676 85.2181 38.4899 85.2181 67.6653 62.8069 75.0866 62.8069 83.0434 92.7115 73.1413 92.8342 73.2363 92.8342 73.1054 92.8342 65.1489ZM83.7367 38.9806 76.3267 41.4341 76.3267 61.2878 76.3626 61.3117 62.8113 65.7992 62.8113 73.5408 83.7411 66.6102 83.7411 58.868ZM108.433 77.6011 108.433 114.254 60.9669 129.97 60.9669 100.589 60.9669 94.257 60.9669 93.3189 102.086 79.7035ZM106.593 80.136 99.2331 82.5731 99.2331 106.743 62.8069 118.806 62.8069 127.252 106.593 112.753ZM97.3934 83.1821 90.0334 85.6198 90.0334 99.2322 62.8069 108.247 62.8069 116.694 97.3934 105.241Z" fill="#262626" fill-rule="nonzero" fill-opacity="1" transform="matrix(1 0 0 1.00662 499 416)"/></g></g></g></g></g></svg>