<svg width="76" height="77" xmlns="http://www.w3.org/2000/svg" xmlns:xlink="http://www.w3.org/1999/xlink" xml:space="preserve" overflow="hidden"><g transform="translate(-748 -45)"><g><g><g><g><path d="M811.333 55.5 760.667 55.5C757.174 55.5 754.333 58.3405 754.333 61.8333L754.333 106.167C754.333 109.66 757.174 112.5 760.667 112.5L811.333 112.5C814.826 112.5 817.667 109.66 817.667 106.167L817.667 61.8333C817.667 58.3405 814.826 55.5 811.333 55.5ZM760.667 106.167 760.667 68.1667 811.333 68.1667 811.34 106.167 760.667 106.167Z" fill="#262626" fill-rule="nonzero" fill-opacity="1"/><path d="M777.428 75.4278 765.689 87.1667 777.428 98.9055 781.906 94.4278 774.644 87.1667 781.906 79.9055ZM794.572 75.4278 790.094 79.9055 797.356 87.1667 790.094 94.4278 794.572 98.9055 806.311 87.1667Z" fill="#262626" fill-rule="nonzero" fill-opacity="1"/></g></g></g></g></g></svg>