<svg width="266" height="266" xmlns="http://www.w3.org/2000/svg" xmlns:xlink="http://www.w3.org/1999/xlink" xml:space="preserve" overflow="hidden"><g transform="translate(-1269 -572)"><g><path d="M1415 575 1415 691.641 1532 691.641C1525.85 630.16 1476.67 581.126 1415 575ZM1479.97 809C1508.58 787.664 1528.26 755.04 1532 717.71L1425.01 717.71 1479.97 809Z" fill="#D9D9D9" fill-rule="evenodd" fill-opacity="1"/><path d="M1389.43 704.668 1389.43 575C1323.59 581.569 1272 637.208 1272 704.668 1272 776.533 1330.53 835 1402.48 835 1421.69 834.975 1440.66 830.684 1458 822.436 1458 822.436 1389.46 706.245 1389.45 704.733 1389.45 704.711 1389.44 704.688 1389.43 704.668Z" fill="#4337CA" fill-rule="evenodd" fill-opacity="1"/></g></g></svg>