<svg width="76" height="76" xmlns="http://www.w3.org/2000/svg" xmlns:xlink="http://www.w3.org/1999/xlink" xml:space="preserve" overflow="hidden"><g transform="translate(-1038 -96)"><g><g><g><g><path d="M1101.5 150.125 1101.5 118.875C1101.5 112.1 1090.05 106.375 1076.5 106.375 1062.95 106.375 1051.5 112.1 1051.5 118.875L1051.5 150.125C1051.5 156.9 1062.95 162.625 1076.5 162.625 1090.05 162.625 1101.5 156.9 1101.5 150.125ZM1076.5 112.625C1088.03 112.625 1095.03 117.334 1095.25 118.856 1095.03 120.416 1088.03 125.125 1076.5 125.125 1064.97 125.125 1057.97 120.416 1057.75 118.894 1057.97 117.334 1064.97 112.625 1076.5 112.625ZM1057.75 127.022C1062.37 129.669 1069.12 131.375 1076.5 131.375 1083.88 131.375 1090.63 129.669 1095.25 127.022L1095.25 134.481C1095.03 136.041 1088.03 140.75 1076.5 140.75 1064.97 140.75 1057.97 136.041 1057.75 134.5L1057.75 127.022ZM1057.75 150.125 1057.75 142.647C1062.37 145.294 1069.12 147 1076.5 147 1083.88 147 1090.63 145.294 1095.25 142.647L1095.25 150.106C1095.03 151.666 1088.03 156.375 1076.5 156.375 1064.97 156.375 1057.97 151.666 1057.75 150.125Z" fill="#4337CA" fill-rule="nonzero" fill-opacity="1"/></g></g></g></g></g></svg>