<svg width="76" height="76" xmlns="http://www.w3.org/2000/svg" xmlns:xlink="http://www.w3.org/1999/xlink" xml:space="preserve" overflow="hidden"><g transform="translate(-628 -348)"><g><path d="M691.333 367C691.333 360.135 679.734 354.333 666 354.333 652.266 354.333 640.667 360.135 640.667 367L640.667 373.333C640.667 380.199 652.266 386 666 386 679.734 386 691.333 380.199 691.333 373.333L691.333 367ZM666 408.167C652.266 408.167 640.667 402.365 640.667 395.5L640.667 405C640.667 411.865 652.266 417.667 666 417.667 679.734 417.667 691.333 411.865 691.333 405L691.333 395.5C691.333 402.365 679.734 408.167 666 408.167Z" fill="#D9D9D9" fill-rule="nonzero" fill-opacity="1"/><path d="M691.333 379.667C691.333 386.532 679.734 392.333 666 392.333 652.266 392.333 640.667 386.532 640.667 379.667L640.667 389.167C640.667 396.032 652.266 401.833 666 401.833 679.734 401.833 691.333 396.032 691.333 389.167L691.333 379.667Z" fill="#D9D9D9" fill-rule="nonzero" fill-opacity="1"/></g></g></svg>