<svg width="196" height="53" xmlns="http://www.w3.org/2000/svg" xmlns:xlink="http://www.w3.org/1999/xlink" xml:space="preserve" overflow="hidden"><defs><clipPath id="clip0"><rect x="860" y="265" width="196" height="53"/></clipPath><clipPath id="clip1"><rect x="860" y="265" width="196" height="53"/></clipPath><clipPath id="clip2"><rect x="861" y="266" width="195" height="52"/></clipPath><clipPath id="clip3"><rect x="861" y="266" width="195" height="52"/></clipPath><clipPath id="clip4"><rect x="861" y="266" width="195" height="52"/></clipPath></defs><g clip-path="url(#clip0)" transform="translate(-860 -265)"><g clip-path="url(#clip1)"><g clip-path="url(#clip2)"><g clip-path="url(#clip3)"><g clip-path="url(#clip4)"><path d="M60.5932 21.7177 60.5932 1.23439 72.8019 1.23439 72.8019 3.40495 63.0586 3.40495 63.0586 10.2717 71.9507 10.2717 71.9507 12.4437 63.0586 12.4437 63.0586 21.7177 60.5932 21.7177Z" fill="#343D53" fill-rule="nonzero" fill-opacity="1" transform="matrix(1 0 0 1.01111 861 266)"/><path d="M76.9686 3.02227C76.7701 3.0419 76.5695 3.01975 76.3801 2.95721 76.1906 2.89468 76.0164 2.79315 75.8685 2.65918 75.6365 2.39713 75.5156 2.05529 75.5308 1.7057L75.5308 1.32084C75.5159 0.971088 75.6369 0.629141 75.8685 0.366631 76.186 0.12864 76.5721 0 76.969 0 77.3658 0 77.752 0.12864 78.0695 0.366631 78.3008 0.629335 78.4217 0.971145 78.4071 1.32084L78.4071 1.70208C78.4221 2.0516 78.3012 2.39335 78.0695 2.65556 77.9218 2.79011 77.7475 2.89226 77.5579 2.95542 77.3683 3.01857 77.1676 3.04135 76.9686 3.02227ZM75.7944 6.57403 78.1428 6.57403 78.1428 21.7177 75.7944 21.7177 75.7944 6.57403Z" fill="#343D53" fill-rule="nonzero" fill-opacity="1" transform="matrix(1 0 0 1.01111 861 266)"/><path d="M80.8428 21.7179 80.8428 6.57403 83.1905 6.57403 83.1905 9.01182 83.3082 9.01182C83.6426 8.20713 84.1843 7.50551 84.8783 6.97851 85.6772 6.43836 86.6302 6.17301 87.5935 6.22256 88.285 6.18883 88.9755 6.30666 89.6168 6.56782 90.258 6.82899 90.8344 7.22716 91.3056 7.73447 92.2811 8.93564 92.7682 10.4602 92.6701 12.0044L92.6701 21.7179 90.3224 21.7179 90.3224 12.3944C90.3224 9.66828 89.1777 8.30549 86.8883 8.30597 86.4277 8.30489 85.969 8.36421 85.5238 8.48244 85.1013 8.59212 84.6999 8.771 84.3358 9.01182 83.9896 9.24001 83.7028 9.54746 83.4992 9.90866 83.2863 10.3009 83.1799 10.742 83.1905 11.1882L83.1905 21.7179 80.8428 21.7179Z" fill="#343D53" fill-rule="nonzero" fill-opacity="1" transform="matrix(1 0 0 1.01111 861 266)"/><path d="M104.087 22.0707C102.854 22.0892 101.63 21.8545 100.491 21.3808 99.4354 20.9286 98.5006 20.235 97.7621 19.3555 96.9636 18.3787 96.3708 17.2506 96.0193 16.0391 95.5858 14.5575 95.378 13.0191 95.4027 11.4757 95.3772 9.93678 95.585 8.40285 96.0193 6.92621 96.375 5.7165 96.9674 4.58946 97.7621 3.61046 98.4971 2.72372 99.4325 2.02453 100.491 1.57062 102.795 0.650776 105.364 0.650776 107.667 1.57062 108.732 2.02166 109.672 2.72112 110.412 3.61046 111.207 4.5897 111.8 5.71659 112.158 6.92621 112.592 8.40215 112.8 9.93528 112.775 11.4735 112.8 13.0169 112.593 14.5552 112.16 16.0368 111.807 17.2484 111.212 18.3763 110.414 19.3533 109.671 20.2354 108.731 20.9294 107.669 21.3786 106.535 21.8504 105.316 22.0859 104.087 22.0707ZM104.087 19.8979C104.922 19.9066 105.751 19.7466 106.523 19.4274 107.254 19.1213 107.911 18.6588 108.445 18.0723 108.999 17.4562 109.423 16.7352 109.693 15.9519 109.997 15.0612 110.146 14.1249 110.132 13.1837L110.132 9.76702C110.146 8.82589 109.997 7.88953 109.693 6.99882 109.423 6.21553 108.999 5.49444 108.445 4.87838 107.911 4.29215 107.254 3.82991 106.523 3.52405 104.96 2.8947 103.214 2.8947 101.651 3.52405 100.919 3.82972 100.263 4.292 99.7286 4.87838 99.1745 5.49424 98.7502 6.2154 98.481 6.99882 98.1768 7.88953 98.028 8.82589 98.041 9.76702L98.041 13.1837C98.028 14.1249 98.1768 15.0612 98.481 15.9519 98.7502 16.7353 99.1745 17.4565 99.7286 18.0723 100.263 18.6589 100.919 19.1215 101.651 19.4274 102.423 19.7465 103.252 19.9064 104.087 19.8973L104.087 19.8979Z" fill="#343D53" fill-rule="nonzero" fill-opacity="1" transform="matrix(1 0 0 1.01111 861 266)"/><path d="M115.063 6.57399 117.411 6.57399 117.411 9.01177 117.528 9.01177C117.855 8.14099 118.458 7.4013 119.246 6.90585 120.07 6.43236 121.009 6.19613 121.96 6.22323 122.842 6.21114 123.716 6.40195 124.513 6.78094 125.277 7.1532 125.944 7.69551 126.465 8.3662 127.033 9.11053 127.453 9.95749 127.699 10.8606 127.996 11.9307 128.139 13.0371 128.125 14.1474 128.139 15.2577 127.996 16.3645 127.699 17.4347 127.453 18.3379 127.033 19.1848 126.465 19.9292 125.944 20.5996 125.277 21.1417 124.513 21.5138 123.716 21.8932 122.842 22.0844 121.96 22.0722 121.025 22.1145 120.1 21.8699 119.308 21.3713 118.516 20.8725 117.896 20.1435 117.53 19.2822L117.414 19.2822 117.414 27.5875 115.065 27.5875 115.063 6.57399ZM121.315 19.9865C121.897 20.0169 122.479 19.9204 123.021 19.7041 123.564 19.4877 124.052 19.1565 124.454 18.7332 125.244 17.8245 125.654 16.6469 125.599 15.4443L125.599 12.8481C125.654 11.6456 125.244 10.4679 124.454 9.55931 124.052 9.13601 123.564 8.80477 123.021 8.5884 122.479 8.37202 121.897 8.27566 121.315 8.30593 120.802 8.30208 120.292 8.37553 119.803 8.52378 119.356 8.65465 118.935 8.85883 118.556 9.12796 118.213 9.37318 117.927 9.69011 117.719 10.0567 117.516 10.4116 117.41 10.8135 117.411 11.2222L117.411 16.8865C117.403 17.3432 117.509 17.7948 117.719 18.2001 117.924 18.5818 118.209 18.914 118.556 19.1732 118.931 19.4496 119.353 19.6545 119.803 19.7774 120.294 19.9179 120.802 19.9883 121.315 19.9865Z" fill="#343D53" fill-rule="nonzero" fill-opacity="1" transform="matrix(1 0 0 1.01111 861 266)"/><path d="M135.8 22.0707C134.571 22.1133 133.352 21.835 132.264 21.2632 131.308 20.7193 130.473 19.9849 129.813 19.1057L131.484 17.7557C132.017 18.4536 132.686 19.0374 133.449 19.4725 134.224 19.8866 135.094 20.0939 135.973 20.0744 136.801 20.1241 137.622 19.897 138.306 19.4289 138.544 19.2288 138.74 18.9835 138.883 18.707 139.025 18.4306 139.111 18.1287 139.136 17.8187 139.16 17.5087 139.123 17.197 139.025 16.9016 138.929 16.6062 138.774 16.333 138.571 16.0979 137.995 15.5896 137.267 15.2853 136.501 15.2323L135.298 15.0558C134.639 14.9686 133.99 14.8164 133.361 14.6012 132.806 14.4125 132.286 14.1349 131.82 13.7792 131.383 13.44 131.03 13.0027 130.794 12.5026 130.536 11.9311 130.412 11.3089 130.43 10.6828 130.414 10.0094 130.556 9.34166 130.841 8.7315 131.104 8.18566 131.491 7.70842 131.971 7.33724 132.484 6.94905 133.068 6.66509 133.69 6.5014 134.388 6.31054 135.108 6.21647 135.832 6.22182 136.901 6.18628 137.962 6.40792 138.929 6.86812 139.772 7.30863 140.517 7.91764 141.115 8.65743L139.56 10.0662C139.108 9.46426 138.516 8.98139 137.836 8.65938 137.156 8.33736 136.408 8.18591 135.656 8.21809 134.866 8.16089 134.082 8.3841 133.44 8.84841 133.193 9.0587 132.996 9.32278 132.867 9.62045 132.737 9.91812 132.677 10.2415 132.692 10.5658 132.666 10.8766 132.721 11.1888 132.852 11.4718 132.984 11.7547 133.186 11.9986 133.44 12.1794 134.101 12.5699 134.836 12.8199 135.598 12.9136L136.771 13.0893C138.088 13.1863 139.34 13.6944 140.352 14.5416 140.707 14.9136 140.985 15.3537 141.166 15.8353 141.348 16.317 141.431 16.8304 141.408 17.3447 141.439 17.9979 141.32 18.6495 141.061 19.2497 140.802 19.8499 140.409 20.3829 139.911 20.8079 138.737 21.7076 137.278 22.1556 135.8 22.0707Z" fill="#343D53" fill-rule="nonzero" fill-opacity="1" transform="matrix(1 0 0 1.01111 861 266)"/><path d="M60.5932 51.0664 60.5932 30.5816 72.8019 30.5816 72.8019 32.7507 63.0586 32.7507 63.0586 39.6204 71.9507 39.6204 71.9507 41.7924 63.0586 41.7924 63.0586 51.0664 60.5932 51.0664Z" fill="#343D53" fill-rule="nonzero" fill-opacity="1" transform="matrix(1 0 0 1.01111 861 266)"/><path d="M81.5007 51.4186C80.5423 51.4307 79.5921 51.2406 78.7122 50.8609 77.8821 50.4975 77.1449 49.9514 76.5554 49.2633 75.9349 48.5277 75.4611 47.68 75.1596 46.7659 74.4945 44.6402 74.4945 42.3619 75.1596 40.2361 75.4586 39.3177 75.9319 38.4655 76.554 37.7265 77.1433 37.0382 77.8806 36.4921 78.7107 36.1289 79.5909 35.7495 80.5409 35.5594 81.4993 35.5712 82.4528 35.5587 83.398 35.7487 84.2726 36.1289 85.0998 36.4969 85.8361 37.0424 86.4292 37.7265 87.0592 38.4622 87.5381 39.3151 87.8381 40.2361 88.5043 42.3618 88.5043 44.6403 87.8381 46.7659 87.5355 47.6812 87.0569 48.5286 86.4292 49.2604 85.836 49.9443 85.0997 50.4897 84.2726 50.858 83.3988 51.2392 82.4539 51.4304 81.5007 51.4186ZM81.5007 49.3352C82.0714 49.3576 82.6409 49.2652 83.1753 49.0636 83.7096 48.8619 84.1981 48.555 84.6117 48.1609 85.044 47.6765 85.3736 47.1094 85.5805 46.4939 85.7872 45.8785 85.8671 45.2274 85.8149 44.5802L85.8149 42.4089C85.8669 41.7617 85.787 41.1106 85.5802 40.4952 85.3735 39.8797 85.0439 39.3125 84.6117 38.8281 83.7521 38.0713 82.646 37.6538 81.5007 37.6538 80.3554 37.6538 79.2494 38.0713 78.3898 38.8281 77.9574 39.3125 77.6278 39.8796 77.4209 40.4951 77.2141 41.1106 77.1343 41.7617 77.1865 42.4089L77.1865 44.5802C77.1342 45.2274 77.2139 45.8785 77.4208 46.494 77.6276 47.1095 77.9573 47.6766 78.3898 48.1609 78.8032 48.555 79.2917 48.8621 79.826 49.0637 80.3605 49.2655 80.9299 49.3578 81.5007 49.3352Z" fill="#343D53" fill-rule="nonzero" fill-opacity="1" transform="matrix(1 0 0 1.01111 861 266)"/><path d="M100.136 48.6294 100.019 48.6294C99.8561 48.9882 99.6645 49.3333 99.4461 49.6612 99.2173 50.0043 98.9349 50.3084 98.6096 50.5618 98.2476 50.838 97.8405 51.0493 97.4062 51.1863 96.8746 51.3506 96.32 51.429 95.7636 51.4186 95.0699 51.4518 94.3773 51.334 93.7337 51.073 93.0901 50.8121 92.5109 50.4144 92.0361 49.9075 91.051 48.7106 90.5577 47.1839 90.6565 45.6367L90.6565 35.9226 93.0042 35.9226 93.0042 45.2461C93.0042 47.9721 94.1585 49.3352 96.4674 49.3352 96.9279 49.3361 97.3866 49.2768 97.8318 49.1587 98.2506 49.0508 98.6478 48.8717 99.006 48.6294 99.3453 48.3973 99.6267 48.0902 99.8281 47.7318 100.043 47.3304 100.149 46.8798 100.136 46.4247L100.136 35.9226 102.484 35.9226 102.484 51.0664 100.136 51.0664 100.136 48.6294Z" fill="#343D53" fill-rule="nonzero" fill-opacity="1" transform="matrix(1 0 0 1.01111 861 266)"/><path d="M105.771 51.0664 105.771 35.9226 108.12 35.9226 108.12 38.3605 108.237 38.3605C108.571 37.5559 109.113 36.8544 109.806 36.3271 110.606 35.7867 111.558 35.5213 112.521 35.5712 113.214 35.5377 113.904 35.6555 114.545 35.9165 115.186 36.1775 115.762 36.5754 116.234 37.0824 117.21 38.2836 117.696 39.8085 117.599 41.353L117.599 51.0664 115.25 51.0664 115.25 41.743C115.25 39.0179 114.106 37.6548 111.817 37.6539 111.357 37.653 110.897 37.7126 110.452 37.8311 110.029 37.9404 109.627 38.1193 109.264 38.3605 108.918 38.5888 108.631 38.8962 108.427 39.2572 108.215 39.6493 108.109 40.0902 108.12 40.5361L108.12 51.0657 105.771 51.0664Z" fill="#343D53" fill-rule="nonzero" fill-opacity="1" transform="matrix(1 0 0 1.01111 861 266)"/><path d="M130.717 48.6294 130.6 48.6294C130.23 49.4876 129.609 50.2135 128.818 50.7114 128.027 51.2094 127.104 51.4559 126.17 51.4186 125.287 51.431 124.414 51.2402 123.617 50.8609 122.853 50.489 122.186 49.9467 121.666 49.2756 121.097 48.5319 120.677 47.6847 120.432 46.7812 119.864 44.6268 119.864 42.3623 120.432 40.2078 120.678 39.3045 121.097 38.4574 121.666 37.7134 122.187 37.0426 122.854 36.5002 123.617 36.1281 124.414 35.7492 125.287 35.5584 126.17 35.5705 127.121 35.5435 128.06 35.7799 128.885 36.2538 129.673 36.7492 130.276 37.489 130.602 38.3597L130.72 38.3597 130.72 29.3486 133.067 29.3486 133.067 51.0664 130.72 51.0664 130.717 48.6294ZM126.814 49.3352C127.325 49.3374 127.834 49.2679 128.326 49.129 128.775 49.0059 129.197 48.8008 129.572 48.524 129.919 48.2649 130.205 47.9324 130.409 47.5502 130.62 47.1456 130.726 46.6944 130.717 46.238L130.717 40.5738C130.72 40.165 130.612 39.7629 130.409 39.4083 130.201 39.0418 129.915 38.7249 129.572 38.4795 129.193 38.2107 128.772 38.0066 128.326 37.8753 127.836 37.7257 127.326 37.6509 126.814 37.6531 126.231 37.623 125.649 37.7195 125.106 37.9362 124.564 38.1527 124.076 38.4843 123.674 38.908 122.884 39.8164 122.474 40.9938 122.53 42.1962L122.53 44.7915C122.474 45.9943 122.884 47.1721 123.674 48.0811 124.076 48.5045 124.564 48.8359 125.106 49.0525 125.649 49.2689 126.231 49.3654 126.814 49.3352Z" fill="#343D53" fill-rule="nonzero" fill-opacity="1" transform="matrix(1 0 0 1.01111 861 266)"/><path d="M148.15 51.0664C147.801 51.1005 147.45 51.0549 147.122 50.9327 146.794 50.8107 146.499 50.6156 146.257 50.3621 145.859 49.8531 145.61 49.2438 145.538 48.6018L145.392 48.6018C145.109 49.4772 144.527 50.2251 143.749 50.715 142.923 51.2008 141.977 51.4446 141.019 51.4186 139.66 51.5021 138.32 51.0601 137.277 50.1841 136.828 49.755 136.475 49.2342 136.245 48.6569 136.015 48.0796 135.911 47.4595 135.941 46.8387 135.909 46.2033 136.035 45.5699 136.309 44.9958 136.584 44.4217 136.996 43.9252 137.511 43.5512 138.558 42.7877 140.187 42.4063 142.398 42.4067L145.392 42.4067 145.392 40.9115C145.422 40.4622 145.36 40.0113 145.207 39.5872 145.056 39.1632 144.819 38.775 144.51 38.4469 143.755 37.8221 142.786 37.5167 141.809 37.5958 140.997 37.5665 140.194 37.7812 139.505 38.2123 138.875 38.6375 138.349 39.199 137.965 39.8549L136.556 38.5348C137.008 37.6692 137.688 36.9435 138.523 36.4361 139.55 35.8249 140.732 35.5243 141.927 35.5705 143.473 35.4739 145 35.9539 146.211 36.9176 146.727 37.391 147.131 37.9727 147.394 38.6208 147.658 39.2689 147.775 39.9674 147.736 40.6661L147.736 48.9823 149.469 48.9823 149.469 51.0664 148.15 51.0664ZM141.4 49.4231C141.944 49.4283 142.487 49.3592 143.013 49.2176 143.465 49.0983 143.893 48.8994 144.275 48.6301 144.609 48.3976 144.888 48.0977 145.097 47.75 145.291 47.4211 145.391 47.0459 145.387 46.6644L145.387 44.17 142.277 44.17C141.259 44.0969 140.24 44.2993 139.327 44.7559 139.035 44.9304 138.794 45.1805 138.631 45.4802 138.468 45.78 138.39 46.118 138.403 46.4589L138.403 47.0746C138.387 47.4072 138.452 47.7387 138.592 48.0405 138.733 48.3422 138.945 48.6051 139.211 48.8066 139.851 49.2491 140.622 49.4659 141.4 49.4231Z" fill="#343D53" fill-rule="nonzero" fill-opacity="1" transform="matrix(1 0 0 1.01111 861 266)"/><path d="M155.548 51.0664C155.206 51.0912 154.863 51.0425 154.542 50.924 154.22 50.8054 153.928 50.6194 153.684 50.3787 153.25 49.8821 153.024 49.237 153.052 48.5778L153.052 38.0068 150.558 38.0068 150.558 35.9226 151.967 35.9226C152.152 35.9443 152.341 35.9281 152.52 35.8752 152.699 35.8223 152.865 35.7336 153.01 35.6147 153.227 35.3023 153.326 34.9225 153.288 34.5436L153.288 31.7261 155.4 31.7261 155.4 35.9226 158.717 35.9226 158.717 38.0068 155.4 38.0068 155.4 48.9823 158.482 48.9823 158.482 51.0664 155.548 51.0664Z" fill="#343D53" fill-rule="nonzero" fill-opacity="1" transform="matrix(1 0 0 1.01111 861 266)"/><path d="M163.577 32.3715C163.378 32.3905 163.177 32.3676 162.988 32.3045 162.798 32.2413 162.625 32.1393 162.477 32.0049 162.244 31.7424 162.124 31.4004 162.139 31.0506L162.139 30.6693C162.124 30.3196 162.245 29.9777 162.477 29.7152 162.794 29.4771 163.18 29.3486 163.577 29.3486 163.974 29.3486 164.36 29.4771 164.678 29.7152 164.909 29.9778 165.03 30.3197 165.015 30.6693L165.015 31.0506C165.03 31.4004 164.909 31.7421 164.678 32.0049 164.53 32.1392 164.355 32.2413 164.165 32.3044 163.976 32.3675 163.775 32.3905 163.577 32.3715ZM162.403 35.9225 164.75 35.9225 164.75 51.0663 162.403 51.0663 162.403 35.9225Z" fill="#343D53" fill-rule="nonzero" fill-opacity="1" transform="matrix(1 0 0 1.01111 861 266)"/><path d="M174.065 51.4186C173.107 51.4306 172.157 51.2405 171.277 50.8609 170.447 50.4978 169.71 49.9517 169.121 49.2633 168.501 48.5285 168.028 47.6818 167.727 46.7688 167.061 44.6431 167.061 42.3648 167.727 40.239 168.026 39.3204 168.498 38.4681 169.121 37.7294 169.71 37.0408 170.447 36.4946 171.277 36.1318 172.157 35.7524 173.107 35.5624 174.065 35.5741 175.019 35.5615 175.964 35.7515 176.839 36.1318 177.666 36.4996 178.404 37.045 178.996 37.7294 179.626 38.4654 180.105 39.3181 180.405 40.239 181.07 42.3648 181.07 44.6431 180.405 46.7688 180.102 47.684 179.624 48.5313 178.996 49.2633 178.402 49.9474 177.666 50.4928 176.839 50.8609 175.964 51.2415 175.019 51.4316 174.065 51.4186ZM174.065 49.3352C174.636 49.3576 175.205 49.2652 175.74 49.0636 176.275 48.8619 176.763 48.5549 177.177 48.1609 177.609 47.6766 177.939 47.1095 178.145 46.494 178.352 45.8785 178.432 45.2274 178.38 44.5801L178.38 42.4089C178.431 41.7616 178.352 41.1106 178.145 40.4951 177.939 39.8796 177.609 39.3124 177.177 38.828 176.318 38.0713 175.211 37.6539 174.066 37.6539 172.921 37.6539 171.814 38.0713 170.955 38.828 170.523 39.3124 170.193 39.8796 169.986 40.4951 169.78 41.1106 169.7 41.7616 169.752 42.4089L169.752 44.5801C169.699 45.2274 169.78 45.8785 169.986 46.494 170.193 47.1095 170.523 47.6766 170.955 48.1609 171.369 48.555 171.857 48.862 172.392 49.0637 172.925 49.2655 173.495 49.3577 174.065 49.3352Z" fill="#343D53" fill-rule="nonzero" fill-opacity="1" transform="matrix(1 0 0 1.01111 861 266)"/><path d="M182.75 51.0664 182.75 35.9226 185.099 35.9226 185.099 38.3605 185.216 38.3605C185.551 37.556 186.092 36.8545 186.786 36.3271 187.585 35.7867 188.538 35.5213 189.501 35.5712 190.192 35.5377 190.884 35.6555 191.524 35.9165 192.166 36.1775 192.742 36.5754 193.214 37.0824 194.19 38.2835 194.678 39.8084 194.579 41.353L194.579 51.0664 192.231 51.0664 192.231 41.743C192.231 39.0179 191.086 37.6548 188.796 37.6539 188.336 37.653 187.877 37.7126 187.431 37.8311 187.009 37.9406 186.607 38.1194 186.243 38.3605 185.897 38.5888 185.611 38.8962 185.407 39.2572 185.194 39.6493 185.088 40.0902 185.099 40.5361L185.099 51.0657 182.75 51.0664Z" fill="#343D53" fill-rule="nonzero" fill-opacity="1" transform="matrix(1 0 0 1.01111 861 266)"/><path d="M19.246 51.0664 0 40.3081 0 18.1878 19.246 28.9455 19.246 51.0664Z" fill="#1EA482" fill-rule="nonzero" fill-opacity="1" transform="matrix(1 0 0 1.01111 861 266)"/><path d="M25.8267 51.0664 45.0726 40.3081 45.0726 18.1878 25.8267 28.9455 25.8267 51.0664Z" fill="#1EA482" fill-rule="nonzero" fill-opacity="1" transform="matrix(1 0 0 1.01111 861 266)"/><path d="M22.5333 1.23296 3.30192 12.6493 22.5333 23.3989 41.7648 12.6493 22.5333 1.23296Z" fill="#1EA482" fill-rule="nonzero" fill-opacity="1" transform="matrix(1 0 0 1.01111 861 266)"/></g></g></g></g></g></svg>