<svg width="184" height="48" xmlns="http://www.w3.org/2000/svg" xmlns:xlink="http://www.w3.org/1999/xlink" xml:space="preserve" overflow="hidden"><defs><clipPath id="clip0"><rect x="548" y="336" width="184" height="48"/></clipPath><clipPath id="clip1"><rect x="548" y="336" width="184" height="48"/></clipPath><clipPath id="clip2"><rect x="549" y="336" width="182" height="48"/></clipPath><clipPath id="clip3"><rect x="549" y="336" width="182" height="48"/></clipPath><clipPath id="clip4"><rect x="549" y="336" width="182" height="48"/></clipPath></defs><g clip-path="url(#clip0)" transform="translate(-548 -336)"><g clip-path="url(#clip1)"><g clip-path="url(#clip2)"><g clip-path="url(#clip3)"><g clip-path="url(#clip4)"><path d="M605.554 356.27 605.554 337.152 616.948 337.152 616.948 339.178 607.855 339.178 607.855 345.587 616.154 345.587 616.154 347.614 607.855 347.614 607.855 356.27 605.554 356.27Z" fill="#343D53" fill-rule="nonzero" fill-opacity="1"/><path d="M620.837 338.821C620.652 338.839 620.465 338.818 620.288 338.76 620.111 338.702 619.949 338.607 619.811 338.482 619.594 338.237 619.481 337.918 619.495 337.592L619.495 337.233C619.482 336.906 619.594 336.587 619.811 336.342 620.107 336.12 620.467 336 620.838 336 621.208 336 621.568 336.12 621.865 336.342 622.081 336.587 622.194 336.906 622.18 337.233L622.18 337.589C622.194 337.915 622.081 338.234 621.865 338.479 621.727 338.604 621.564 338.699 621.387 338.758 621.21 338.817 621.023 338.839 620.837 338.821ZM619.741 342.136 621.933 342.136 621.933 356.27 619.741 356.27 619.741 342.136Z" fill="#343D53" fill-rule="nonzero" fill-opacity="1"/><path d="M624.453 356.27 624.453 342.136 626.645 342.136 626.645 344.411 626.754 344.411C627.066 343.66 627.572 343.005 628.22 342.513 628.965 342.009 629.855 341.761 630.754 341.808 631.399 341.776 632.044 341.886 632.642 342.13 633.241 342.374 633.779 342.745 634.219 343.219 635.129 344.34 635.584 345.763 635.492 347.204L635.492 356.27 633.301 356.27 633.301 347.568C633.301 345.024 632.232 343.752 630.096 343.752 629.666 343.751 629.238 343.807 628.822 343.917 628.428 344.019 628.053 344.186 627.713 344.411 627.39 344.624 627.123 344.911 626.933 345.248 626.734 345.614 626.635 346.026 626.645 346.442L626.645 356.27 624.453 356.27Z" fill="#343D53" fill-rule="nonzero" fill-opacity="1"/><path d="M646.148 356.599C644.997 356.617 643.855 356.397 642.792 355.955 641.806 355.533 640.934 354.886 640.245 354.065 639.499 353.154 638.946 352.101 638.618 350.97 638.213 349.587 638.02 348.151 638.042 346.711 638.019 345.274 638.213 343.843 638.618 342.464 638.95 341.335 639.503 340.284 640.245 339.37 640.931 338.542 641.804 337.89 642.792 337.466 644.942 336.607 647.339 336.607 649.489 337.466 650.483 337.887 651.361 338.54 652.051 339.37 652.793 340.284 653.347 341.335 653.681 342.464 654.086 343.842 654.28 345.273 654.257 346.709 654.28 348.149 654.087 349.585 653.683 350.968 653.353 352.099 652.798 353.151 652.053 354.063 651.36 354.886 650.482 355.534 649.491 355.953 648.432 356.394 647.295 356.613 646.148 356.599ZM646.148 354.571C646.928 354.579 647.701 354.43 648.421 354.132 649.104 353.846 649.717 353.415 650.215 352.867 650.732 352.293 651.128 351.62 651.38 350.888 651.664 350.057 651.803 349.183 651.79 348.305L651.79 345.116C651.803 344.237 651.664 343.364 651.38 342.532 651.128 341.801 650.732 341.128 650.215 340.553 649.717 340.006 649.104 339.575 648.421 339.289 646.962 338.702 645.333 338.702 643.874 339.289 643.191 339.574 642.579 340.006 642.08 340.553 641.563 341.128 641.167 341.801 640.916 342.532 640.632 343.364 640.493 344.237 640.505 345.116L640.505 348.305C640.493 349.183 640.632 350.057 640.916 350.888 641.167 351.62 641.563 352.293 642.08 352.867 642.578 353.415 643.191 353.847 643.874 354.132 644.595 354.43 645.368 354.579 646.148 354.571L646.148 354.571Z" fill="#343D53" fill-rule="nonzero" fill-opacity="1"/><path d="M656.392 342.136 658.584 342.136 658.584 344.411 658.693 344.411C658.998 343.598 659.561 342.908 660.296 342.445 661.065 342.004 661.942 341.783 662.829 341.808 663.653 341.797 664.468 341.975 665.212 342.329 665.925 342.676 666.548 343.182 667.034 343.808 667.564 344.503 667.956 345.294 668.186 346.137 668.463 347.135 668.596 348.168 668.583 349.204 668.596 350.241 668.463 351.273 668.186 352.272 667.956 353.115 667.564 353.906 667.034 354.601 666.548 355.226 665.925 355.732 665.212 356.079 664.468 356.434 663.653 356.612 662.829 356.601 661.957 356.64 661.093 356.412 660.354 355.947 659.615 355.481 659.036 354.801 658.695 353.997L658.586 353.997 658.586 361.748 656.394 361.748 656.392 342.136ZM662.227 354.654C662.771 354.682 663.314 354.592 663.82 354.391 664.326 354.189 664.782 353.879 665.157 353.484 665.894 352.636 666.277 351.537 666.226 350.415L666.226 347.992C666.277 346.869 665.894 345.77 665.157 344.922 664.782 344.527 664.326 344.218 663.82 344.016 663.314 343.814 662.771 343.724 662.227 343.752 661.749 343.749 661.273 343.817 660.816 343.956 660.399 344.078 660.006 344.268 659.652 344.519 659.332 344.748 659.065 345.044 658.871 345.386 658.682 345.717 658.583 346.093 658.584 346.474L658.584 351.761C658.576 352.187 658.675 352.608 658.871 352.987 659.062 353.343 659.328 353.653 659.652 353.895 660.002 354.153 660.396 354.344 660.816 354.459 661.274 354.59 661.749 354.656 662.227 354.654Z" fill="#343D53" fill-rule="nonzero" fill-opacity="1"/><path d="M675.747 356.599C674.6 356.639 673.462 356.379 672.446 355.846 671.554 355.338 670.775 354.653 670.159 353.832L671.718 352.572C672.216 353.223 672.84 353.768 673.552 354.174 674.276 354.561 675.088 354.754 675.908 354.736 676.681 354.783 677.447 354.57 678.086 354.134 678.308 353.947 678.491 353.718 678.624 353.46 678.757 353.202 678.837 352.92 678.86 352.631 678.883 352.341 678.848 352.051 678.757 351.775 678.667 351.499 678.522 351.244 678.333 351.025 677.795 350.55 677.116 350.266 676.401 350.217L675.278 350.052C674.663 349.971 674.057 349.829 673.47 349.628 672.952 349.452 672.467 349.193 672.032 348.861 671.624 348.544 671.295 348.136 671.074 347.669 670.834 347.136 670.718 346.555 670.735 345.971 670.72 345.342 670.852 344.719 671.118 344.149 671.364 343.64 671.725 343.195 672.173 342.848 672.652 342.486 673.197 342.221 673.777 342.068 674.429 341.89 675.101 341.802 675.777 341.807 676.774 341.774 677.765 341.981 678.667 342.41 679.454 342.821 680.149 343.39 680.707 344.08L679.256 345.395C678.834 344.833 678.282 344.383 677.647 344.082 677.012 343.782 676.314 343.64 675.612 343.67 674.875 343.617 674.143 343.825 673.544 344.259 673.313 344.455 673.13 344.701 673.009 344.979 672.888 345.257 672.832 345.559 672.846 345.861 672.822 346.151 672.873 346.443 672.995 346.707 673.118 346.971 673.307 347.199 673.544 347.367 674.161 347.732 674.847 347.965 675.558 348.053L676.653 348.217C677.882 348.307 679.051 348.781 679.995 349.572 680.327 349.919 680.586 350.33 680.755 350.78 680.925 351.229 681.002 351.708 680.981 352.188 681.01 352.798 680.899 353.406 680.657 353.966 680.415 354.527 680.048 355.024 679.584 355.421 678.488 356.26 677.126 356.679 675.747 356.599Z" fill="#343D53" fill-rule="nonzero" fill-opacity="1"/><path d="M605.554 383.662 605.554 364.543 616.948 364.543 616.948 366.567 607.855 366.567 607.855 372.979 616.154 372.979 616.154 375.006 607.855 375.006 607.855 383.662 605.554 383.662Z" fill="#343D53" fill-rule="nonzero" fill-opacity="1"/><path d="M625.067 383.991C624.173 384.002 623.286 383.825 622.465 383.47 621.69 383.131 621.002 382.621 620.452 381.979 619.873 381.293 619.43 380.501 619.149 379.648 618.528 377.664 618.528 375.538 619.149 373.554 619.428 372.697 619.87 371.901 620.45 371.211 621 370.569 621.689 370.059 622.463 369.72 623.285 369.366 624.172 369.189 625.066 369.2 625.956 369.188 626.838 369.366 627.654 369.72 628.427 370.064 629.114 370.573 629.667 371.211 630.255 371.898 630.702 372.694 630.982 373.554 631.604 375.538 631.604 377.664 630.982 379.648 630.7 380.503 630.253 381.293 629.667 381.976 629.114 382.615 628.426 383.124 627.654 383.467 626.839 383.823 625.957 384.002 625.067 383.991ZM625.067 382.046C625.6 382.067 626.131 381.981 626.63 381.793 627.129 381.604 627.585 381.318 627.971 380.95 628.374 380.498 628.682 379.969 628.875 379.394 629.068 378.82 629.143 378.212 629.094 377.608L629.094 375.582C629.142 374.978 629.068 374.37 628.875 373.796 628.682 373.221 628.374 372.692 627.971 372.24 627.169 371.533 626.136 371.143 625.067 371.143 623.998 371.143 622.966 371.533 622.164 372.24 621.76 372.692 621.453 373.221 621.26 373.795 621.067 374.37 620.992 374.978 621.041 375.582L621.041 377.608C620.992 378.212 621.066 378.82 621.259 379.394 621.452 379.969 621.76 380.498 622.164 380.95 622.55 381.318 623.006 381.605 623.504 381.793 624.003 381.981 624.535 382.067 625.067 382.046Z" fill="#343D53" fill-rule="nonzero" fill-opacity="1"/><path d="M642.46 381.387 642.351 381.387C642.199 381.722 642.02 382.044 641.816 382.35 641.603 382.671 641.339 382.954 641.036 383.191 640.698 383.449 640.318 383.646 639.912 383.774 639.416 383.927 638.899 384 638.379 383.991 637.732 384.022 637.086 383.912 636.485 383.668 635.884 383.425 635.344 383.053 634.9 382.58 633.981 381.463 633.521 380.038 633.613 378.594L633.613 369.528 635.804 369.528 635.804 378.23C635.804 380.774 636.881 382.046 639.036 382.046 639.466 382.047 639.894 381.992 640.31 381.882 640.701 381.781 641.071 381.614 641.406 381.387 641.722 381.171 641.985 380.884 642.173 380.55 642.373 380.175 642.472 379.755 642.46 379.33L642.46 369.528 644.652 369.528 644.652 383.662 642.46 383.662 642.46 381.387Z" fill="#343D53" fill-rule="nonzero" fill-opacity="1"/><path d="M647.72 383.662 647.72 369.528 649.912 369.528 649.912 371.803 650.021 371.803C650.333 371.052 650.839 370.397 651.486 369.905 652.232 369.401 653.121 369.153 654.02 369.2 654.666 369.168 655.31 369.279 655.909 369.522 656.507 369.766 657.045 370.137 657.485 370.61 658.396 371.731 658.85 373.155 658.759 374.596L658.759 383.662 656.567 383.662 656.567 374.96C656.567 372.417 655.499 371.145 653.363 371.144 652.933 371.143 652.504 371.198 652.089 371.309 651.694 371.411 651.319 371.578 650.98 371.803 650.657 372.016 650.389 372.303 650.199 372.64 650.001 373.006 649.902 373.418 649.912 373.834L649.912 383.661 647.72 383.662Z" fill="#343D53" fill-rule="nonzero" fill-opacity="1"/><path d="M671.003 381.387 670.893 381.387C670.548 382.188 669.968 382.866 669.23 383.331 668.492 383.795 667.63 384.026 666.759 383.991 665.935 384.002 665.12 383.824 664.376 383.47 663.663 383.123 663.04 382.617 662.555 381.991 662.024 381.296 661.632 380.506 661.403 379.663 660.873 377.652 660.873 375.538 661.403 373.527 661.633 372.684 662.024 371.894 662.555 371.199 663.041 370.573 663.664 370.067 664.376 369.72 665.12 369.366 665.935 369.188 666.759 369.199 667.646 369.174 668.523 369.395 669.293 369.837 670.028 370.299 670.591 370.99 670.895 371.802L671.005 371.802 671.005 363.392 673.196 363.392 673.196 383.662 671.005 383.662 671.003 381.387ZM667.36 382.046C667.837 382.048 668.312 381.983 668.771 381.854 669.19 381.739 669.584 381.547 669.934 381.289 670.258 381.047 670.525 380.737 670.715 380.38 670.912 380.003 671.011 379.581 671.003 379.155L671.003 373.869C671.005 373.487 670.905 373.112 670.715 372.781 670.521 372.439 670.254 372.143 669.934 371.914 669.58 371.663 669.187 371.473 668.771 371.35 668.314 371.211 667.838 371.141 667.36 371.143 666.816 371.115 666.272 371.205 665.766 371.407 665.26 371.609 664.804 371.919 664.429 372.314 663.692 373.162 663.309 374.261 663.361 375.383L663.361 377.805C663.309 378.928 663.692 380.027 664.429 380.876 664.804 381.271 665.26 381.58 665.766 381.782 666.272 381.984 666.816 382.074 667.36 382.046Z" fill="#343D53" fill-rule="nonzero" fill-opacity="1"/><path d="M687.273 383.662C686.948 383.694 686.62 383.651 686.314 383.537 686.008 383.423 685.732 383.241 685.507 383.005 685.135 382.53 684.903 381.961 684.835 381.362L684.699 381.362C684.435 382.179 683.892 382.877 683.166 383.334 682.395 383.787 681.512 384.015 680.618 383.991 679.349 384.069 678.099 383.656 677.125 382.839 676.706 382.438 676.377 381.952 676.162 381.413 675.947 380.874 675.85 380.296 675.878 379.716 675.848 379.123 675.966 378.532 676.222 377.996 676.478 377.46 676.863 376.997 677.344 376.648 678.321 375.935 679.841 375.579 681.905 375.58L684.699 375.58 684.699 374.184C684.727 373.765 684.669 373.344 684.527 372.948 684.386 372.552 684.164 372.19 683.876 371.884 683.171 371.301 682.267 371.016 681.355 371.089 680.597 371.062 679.848 371.263 679.205 371.665 678.617 372.062 678.126 372.586 677.767 373.198L676.452 371.966C676.874 371.158 677.509 370.481 678.288 370.007 679.247 369.437 680.35 369.156 681.465 369.199 682.908 369.109 684.333 369.557 685.464 370.456 685.945 370.898 686.322 371.441 686.568 372.046 686.814 372.651 686.923 373.303 686.887 373.955L686.887 381.717 688.504 381.717 688.504 383.662 687.273 383.662ZM680.973 382.128C681.481 382.133 681.988 382.069 682.479 381.936 682.901 381.825 683.3 381.639 683.657 381.388 683.968 381.171 684.229 380.891 684.424 380.567 684.605 380.26 684.698 379.909 684.695 379.553L684.695 377.225 681.792 377.225C680.842 377.157 679.891 377.346 679.039 377.772 678.766 377.935 678.541 378.168 678.389 378.448 678.237 378.728 678.164 379.043 678.176 379.362L678.176 379.936C678.161 380.247 678.222 380.556 678.353 380.838 678.484 381.119 678.682 381.365 678.93 381.553 679.528 381.966 680.247 382.168 680.973 382.128Z" fill="#343D53" fill-rule="nonzero" fill-opacity="1"/><path d="M694.178 383.662C693.859 383.685 693.539 383.64 693.239 383.529 692.939 383.418 692.666 383.245 692.438 383.02 692.033 382.557 691.822 381.954 691.849 381.339L691.849 371.473 689.521 371.473 689.521 369.528 690.836 369.528C691.009 369.548 691.185 369.533 691.352 369.483 691.519 369.434 691.674 369.351 691.809 369.24 692.012 368.949 692.104 368.594 692.069 368.241L692.069 365.611 694.04 365.611 694.04 369.528 697.136 369.528 697.136 371.473 694.04 371.473 694.04 381.717 696.917 381.717 696.917 383.662 694.178 383.662Z" fill="#343D53" fill-rule="nonzero" fill-opacity="1"/><path d="M701.672 366.213C701.486 366.231 701.299 366.21 701.122 366.151 700.945 366.092 700.783 365.997 700.645 365.871 700.428 365.626 700.316 365.307 700.33 364.981L700.33 364.625C700.316 364.298 700.429 363.979 700.645 363.734 700.941 363.512 701.301 363.392 701.672 363.392 702.042 363.392 702.403 363.512 702.699 363.734 702.915 363.979 703.028 364.298 703.014 364.625L703.014 364.981C703.028 365.307 702.915 365.626 702.699 365.871 702.561 365.997 702.398 366.092 702.221 366.151 702.044 366.21 701.857 366.231 701.672 366.213ZM700.576 369.528 702.767 369.528 702.767 383.662 700.576 383.662 700.576 369.528Z" fill="#343D53" fill-rule="nonzero" fill-opacity="1"/><path d="M711.461 383.991C710.567 384.002 709.68 383.824 708.859 383.47 708.084 383.131 707.396 382.622 706.846 381.979 706.268 381.293 705.826 380.503 705.545 379.651 704.924 377.667 704.924 375.54 705.545 373.556 705.824 372.699 706.265 371.904 706.846 371.214 707.396 370.571 708.084 370.062 708.859 369.723 709.68 369.369 710.567 369.192 711.461 369.203 712.351 369.191 713.233 369.368 714.05 369.723 714.822 370.066 715.51 370.575 716.063 371.214 716.651 371.901 717.098 372.697 717.378 373.556 717.999 375.54 717.999 377.667 717.378 379.651 717.095 380.505 716.649 381.296 716.063 381.979 715.509 382.618 714.822 383.127 714.05 383.47 713.233 383.825 712.351 384.003 711.461 383.991ZM711.461 382.046C711.994 382.067 712.525 381.981 713.024 381.793 713.523 381.604 713.979 381.318 714.365 380.95 714.768 380.498 715.076 379.969 715.269 379.394 715.462 378.82 715.537 378.212 715.488 377.608L715.488 375.582C715.536 374.978 715.462 374.37 715.269 373.795 715.076 373.221 714.768 372.692 714.365 372.24 713.563 371.533 712.53 371.144 711.462 371.144 710.393 371.144 709.36 371.533 708.558 372.24 708.155 372.692 707.847 373.221 707.654 373.795 707.461 374.37 707.387 374.978 707.435 375.582L707.435 377.608C707.386 378.212 707.461 378.82 707.654 379.394 707.847 379.969 708.155 380.498 708.558 380.95 708.944 381.318 709.4 381.604 709.899 381.793 710.397 381.981 710.929 382.067 711.461 382.046Z" fill="#343D53" fill-rule="nonzero" fill-opacity="1"/><path d="M719.567 383.662 719.567 369.528 721.759 369.528 721.759 371.803 721.868 371.803C722.181 371.052 722.686 370.397 723.334 369.905 724.079 369.401 724.969 369.153 725.868 369.2 726.513 369.168 727.158 369.279 727.756 369.522 728.355 369.766 728.893 370.137 729.333 370.61 730.244 371.731 730.699 373.155 730.607 374.596L730.607 383.662 728.416 383.662 728.416 374.96C728.416 372.417 727.347 371.145 725.21 371.144 724.78 371.143 724.352 371.198 723.936 371.309 723.542 371.411 723.167 371.578 722.827 371.803 722.504 372.016 722.237 372.303 722.047 372.64 721.848 373.006 721.749 373.418 721.759 373.834L721.759 383.661 719.567 383.662Z" fill="#343D53" fill-rule="nonzero" fill-opacity="1"/><path d="M566.963 383.662 549 373.621 549 352.975 566.963 363.016 566.963 383.662Z" fill="#1EA482" fill-rule="nonzero" fill-opacity="1"/><path d="M573.105 383.662 591.068 373.621 591.068 352.975 573.105 363.016 573.105 383.662Z" fill="#1EA482" fill-rule="nonzero" fill-opacity="1"/><path d="M570.031 337.151 552.082 347.806 570.031 357.839 587.98 347.806 570.031 337.151Z" fill="#1EA482" fill-rule="nonzero" fill-opacity="1"/></g></g></g></g></g></svg>