<svg width="76" height="76" xmlns="http://www.w3.org/2000/svg" xmlns:xlink="http://www.w3.org/1999/xlink" xml:space="preserve" overflow="hidden"><g transform="translate(-69 -42)"><g><g><g><g><path d="M107.911 49.25 87.487 56.0129 91.1425 58.6478 111.591 51.8765ZM91.1425 58.6478 87.487 56.0132 87.487 101.304 91.1425 104.289ZM112.327 52.4016 92.0566 59.1138 92.0566 105.035 95.712 108.02 95.712 61.8553 116.11 55.101ZM116.923 55.6809 96.6258 62.4016 96.6258 86.6086 96.6258 108.765 100.282 111.75 127.513 102.733 127.513 80.3331 123.857 77.5916 120.705 78.6352 120.705 77.7864 122.944 77.0453 120.705 75.3666 120.705 58.3806ZM116.923 59.6331 116.923 79.888 100.282 85.3981 100.282 85.3089 100.282 65.1433ZM116.11 60.8647 112.327 62.1175 112.327 76.6086 101.195 80.2947 101.195 84.2467 116.049 79.3284 116.11 79.3756 116.11 79.3106 116.11 75.3587ZM111.591 62.3613 107.911 63.5798 107.911 73.4409 107.928 73.4528 101.198 75.6817 101.198 79.5269 111.593 76.0845 111.593 72.2391ZM123.857 81.5436 123.857 99.7486 100.282 107.555 100.282 92.9616 100.282 89.8164 100.282 89.3505 120.705 82.5878ZM122.944 82.8027 119.288 84.0131 119.288 96.0178 101.195 102.01 101.195 106.205 122.944 99.003ZM118.374 84.3156 114.719 85.5264 114.719 92.2875 101.195 96.7652 101.195 100.96 118.374 95.272Z" fill="#262626" fill-rule="nonzero" fill-opacity="1"/></g></g></g></g></g></svg>