<svg width="59" height="64" xmlns="http://www.w3.org/2000/svg" xmlns:xlink="http://www.w3.org/1999/xlink" xml:space="preserve" overflow="hidden"><g transform="translate(-610 -328)"><g><g><g><g><path d="M6.95608 0 50.9459 0C54.7669 0 57.902 3.13514 57.902 6.95608L57.902 53.8851C57.902 57.7061 54.7669 60.8412 50.9459 60.8412L6.95608 60.8412C3.13514 60.8412 0 57.7061 0 53.8851L0 6.95608C0 5.09459 0.685811 3.33108 2.05743 2.05743 3.42905 0.783784 5.09459 0 6.95608 0Z" fill="#42B0D5" fill-rule="nonzero" fill-opacity="1" transform="matrix(1 0 0 1.01724 611 329.055)"/><path d="M38.2095 28.7061 49.6723 14.5 33.1149 22.3378 29 4.60473 24.8851 22.3378 8.3277 14.5 19.7905 28.7061 3.23311 36.6419 21.5541 36.6419 17.5372 54.375 29 40.1689 40.4628 54.375 36.348 36.6419 54.7669 36.6419Z" fill="#FFFFFF" fill-rule="nonzero" fill-opacity="1" transform="matrix(1 0 0 1.01724 611 329.055)"/></g></g></g></g></g></svg>