<svg width="261" height="271" xmlns="http://www.w3.org/2000/svg" xmlns:xlink="http://www.w3.org/1999/xlink" xml:space="preserve" overflow="hidden"><g transform="translate(-2539 -719)"><g><g><g><g><path d="M115.949 32.9658 67.1991 11.2992C65.7973 10.6762 64.1972 10.6762 62.7954 11.2992L14.0454 32.9658C13.9371 33.0146 13.8612 33.0958 13.7529 33.1554 13.6012 33.2312 13.4387 33.28 13.2979 33.3721 13.1787 33.4533 13.0867 33.5562 12.9729 33.6429 12.577 33.9371 12.2297 34.2918 11.9437 34.6937 11.8354 34.8454 11.7217 34.9808 11.6242 35.1325 11.463 35.4188 11.3253 35.7176 11.2125 36.0262 11.1637 36.1725 11.0879 36.3079 11.0446 36.4542 10.9086 36.9299 10.8375 37.4218 10.8333 37.9166L10.8333 92.0833C10.8333 94.2283 12.09 96.162 14.0508 97.0341L62.8008 118.701C63.505 119.015 64.2525 119.167 65 119.167 65.754 119.147 66.4961 118.97 67.1775 118.647L67.1991 118.701 115.949 97.0341C117.907 96.1658 119.168 94.225 119.167 92.0833L119.167 37.9166C119.168 35.7751 117.907 33.834 115.949 32.9658ZM65 22.1812 100.414 37.9166 65 53.6521 57.915 50.505 29.5912 37.9166 65 22.1812ZM70.4166 105.414 70.4166 63.1041 108.333 46.2529 108.333 88.5679 70.4166 105.414Z" fill="#4337CA" fill-rule="nonzero" fill-opacity="1" transform="matrix(1 0 0 1 2669 720)"/></g></g></g><g><g><g><path d="M2657.95 815.966 2609.2 794.299C2607.8 793.676 2606.2 793.676 2604.8 794.299L2556.05 815.966C2555.94 816.015 2555.86 816.096 2555.75 816.155 2555.6 816.231 2555.44 816.28 2555.3 816.372 2555.18 816.453 2555.09 816.556 2554.97 816.643 2554.58 816.937 2554.23 817.292 2553.94 817.694 2553.84 817.845 2553.72 817.981 2553.62 818.133 2553.46 818.419 2553.33 818.718 2553.21 819.026 2553.16 819.173 2553.09 819.308 2553.04 819.454 2552.91 819.93 2552.84 820.422 2552.83 820.917L2552.83 875.083C2552.83 877.228 2554.09 879.162 2556.05 880.034L2604.8 901.701C2605.5 902.015 2606.25 902.167 2607 902.167 2607.75 902.147 2608.5 901.97 2609.18 901.647L2609.2 901.701 2657.95 880.034C2659.91 879.166 2661.17 877.225 2661.17 875.083L2661.17 820.917C2661.17 818.775 2659.91 816.834 2657.95 815.966ZM2607 805.181 2642.41 820.917 2607 836.652 2599.92 833.505 2571.59 820.917 2607 805.181ZM2612.42 888.414 2612.42 846.104 2650.33 829.253 2650.33 871.568 2612.42 888.414Z" fill="#4337CA" fill-rule="nonzero" fill-opacity="1"/></g></g></g><g><g><g><path d="M2768.95 890.966 2720.2 869.299C2718.8 868.676 2717.2 868.676 2715.8 869.299L2667.05 890.966C2666.94 891.015 2666.86 891.096 2666.75 891.155 2666.6 891.231 2666.44 891.28 2666.3 891.372 2666.18 891.453 2666.09 891.556 2665.97 891.643 2665.58 891.937 2665.23 892.292 2664.94 892.694 2664.84 892.845 2664.72 892.981 2664.62 893.133 2664.46 893.419 2664.33 893.718 2664.21 894.026 2664.16 894.172 2664.09 894.308 2664.04 894.454 2663.91 894.93 2663.84 895.422 2663.83 895.917L2663.83 950.083C2663.83 952.228 2665.09 954.162 2667.05 955.034L2715.8 976.701C2716.5 977.015 2717.25 977.167 2718 977.167 2718.75 977.147 2719.5 976.97 2720.18 976.647L2720.2 976.701 2768.95 955.034C2770.91 954.166 2772.17 952.225 2772.17 950.083L2772.17 895.917C2772.17 893.775 2770.91 891.834 2768.95 890.966ZM2718 880.181 2753.41 895.917 2718 911.652 2710.92 908.505 2682.59 895.917 2718 880.181ZM2723.42 963.414 2723.42 921.104 2761.33 904.253 2761.33 946.568 2723.42 963.414Z" fill="#4337CA" fill-rule="nonzero" fill-opacity="1"/></g></g></g></g></g></svg>