<svg width="155" height="48" xmlns="http://www.w3.org/2000/svg" xmlns:xlink="http://www.w3.org/1999/xlink" xml:space="preserve" overflow="hidden"><g transform="translate(-562 -336)"><g><g><g><g><path d="M706.325 336.207C705.825 335.932 705.218 335.932 704.718 336.207L696.485 340.733C696.478 340.737 696.471 340.74 696.464 340.744L695.38 341.34C694.847 341.633 694.516 342.194 694.516 342.802L694.516 352.98C694.516 353.589 694.847 354.149 695.38 354.442L703.692 359.01 703.724 359.028 704.718 359.574C705.218 359.849 705.824 359.849 706.325 359.574L707.321 359.026 707.351 359.01 715.662 354.442C716.196 354.149 716.527 353.589 716.527 352.98L716.527 342.802C716.527 342.193 716.196 341.632 715.662 341.34L714.582 340.746C714.574 340.742 714.566 340.737 714.558 340.733L706.325 336.207ZM706.854 347.891 714.558 343.656C714.566 343.652 714.574 343.647 714.582 343.643L714.674 343.593C714.86 343.491 715.094 343.559 715.197 343.746 715.228 343.802 715.244 343.866 715.244 343.93L715.244 351.852C715.244 352.065 715.072 352.237 714.859 352.237 714.795 352.237 714.731 352.221 714.674 352.19L714.603 352.15C714.588 352.142 714.573 352.133 714.558 352.125L706.854 347.891ZM696.465 343.645C696.472 343.649 696.478 343.653 696.485 343.656L704.189 347.891 696.485 352.125C696.47 352.133 696.456 352.141 696.442 352.149L696.369 352.189C696.182 352.291 695.949 352.223 695.846 352.036 695.815 351.98 695.799 351.916 695.799 351.852L695.799 343.93C695.799 343.637 696.112 343.451 696.369 343.592L696.465 343.645ZM713.952 341.864 706.733 337.896C706.547 337.794 706.313 337.862 706.21 338.048 706.181 338.102 706.165 338.161 706.163 338.222L706.163 346.806 713.951 342.526C714.134 342.418 714.194 342.182 714.086 341.999 714.053 341.943 714.007 341.897 713.952 341.864ZM697.093 342.526 704.88 346.806 704.88 338.222C704.874 338.009 704.696 337.842 704.484 337.849 704.423 337.851 704.363 337.867 704.31 337.896L697.093 341.862C696.91 341.97 696.848 342.206 696.956 342.389 696.989 342.446 697.036 342.493 697.093 342.526ZM697.103 353.924C696.917 353.821 696.849 353.587 696.952 353.401 696.983 353.344 697.028 353.297 697.082 353.262L704.88 348.976 704.88 357.56C704.874 357.773 704.696 357.94 704.484 357.933 704.429 357.932 704.375 357.918 704.325 357.894L697.103 353.924ZM706.163 357.549 706.163 348.976 713.961 353.262C714.14 353.376 714.193 353.614 714.079 353.794 714.044 353.848 713.997 353.893 713.94 353.924L706.719 357.894C706.529 357.989 706.297 357.911 706.203 357.72 706.178 357.67 706.165 357.616 706.163 357.56L706.163 357.549Z" fill="#0D1A2B" fill-rule="evenodd" fill-opacity="1"/><path d="M705.336 337.33C705.452 337.266 705.591 337.266 705.707 337.33L713.94 341.856C714.126 341.958 714.195 342.192 714.092 342.379 714.057 342.443 714.004 342.496 713.94 342.531L705.707 347.056C705.591 347.119 705.452 347.119 705.336 347.056L697.103 342.531C696.917 342.429 696.848 342.195 696.951 342.008 696.986 341.944 697.039 341.891 697.103 341.856L705.336 337.331Z" fill="#E2D23F" fill-rule="nonzero" fill-opacity="1"/><path d="M695.799 343.928C695.799 343.636 696.113 343.45 696.369 343.591L704.681 348.159C704.804 348.227 704.881 348.356 704.88 348.497L704.88 357.547C704.88 357.76 704.708 357.932 704.495 357.932 704.431 357.932 704.367 357.916 704.31 357.885L695.998 353.316C695.875 353.248 695.799 353.119 695.799 352.979L695.799 343.93Z" fill="#FFEC40" fill-rule="nonzero" fill-opacity="1"/><path d="M714.674 343.591C714.86 343.489 715.094 343.557 715.197 343.744 715.228 343.8 715.244 343.864 715.244 343.928L715.244 352.979C715.244 353.119 715.168 353.249 715.045 353.317L706.733 357.885C706.547 357.987 706.312 357.919 706.21 357.732 706.179 357.676 706.163 357.612 706.163 357.547L706.163 348.497C706.163 348.357 706.24 348.227 706.363 348.159L714.674 343.591Z" fill="#FFFFFF" fill-rule="nonzero" fill-opacity="1"/><path d="M699.289 351.03 699.288 351.043 697.34 350.018 697.341 350.005C697.386 349.399 697.859 349.137 698.397 349.42 698.935 349.703 699.334 350.424 699.289 351.03ZM702.355 352.8 702.354 352.813 700.406 351.788 700.407 351.775C700.452 351.169 700.924 350.907 701.462 351.19 702 351.473 702.4 352.194 702.355 352.8Z" fill="#0D1A2B" fill-rule="nonzero" fill-opacity="1"/></g></g></g></g></g></svg>