<svg width="632" height="174" xmlns="http://www.w3.org/2000/svg" xmlns:xlink="http://www.w3.org/1999/xlink" xml:space="preserve" overflow="hidden"><g transform="translate(-3245 -348)"><g><path d="M3465.43 399.836C3467.13 397.011 3468 393.671 3468 389.9 3468 386.128 3467.13 382.77 3465.43 379.92 3463.72 377.07 3461.28 374.849 3458.17 373.316 3455.05 371.784 3451.4 371 3447.32 371L3424 371 3424 428 3435.95 428 3435.95 408.713 3447.32 408.713C3451.4 408.713 3455.05 407.93 3458.17 406.397 3461.28 404.864 3463.73 402.66 3465.43 399.836L3465.43 399.836ZM3453.25 396.461C3451.51 398.079 3449.13 398.897 3446.16 398.897L3435.94 398.897 3435.94 380.807 3446.16 380.807C3449.13 380.807 3451.51 381.625 3453.25 383.244 3455 384.862 3455.89 387.101 3455.89 389.891 3455.89 392.681 3455 394.833 3453.25 396.452L3453.25 396.461Z" fill="#262626" fill-rule="evenodd" fill-opacity="1"/><path d="M3486 371 3475 371 3475 428 3486 428 3486 371Z" fill="#262626" fill-rule="evenodd" fill-opacity="1"/><path d="M3524.2 425.646C3525.45 426.891 3527.5 427.526 3530.28 427.526L3536 427.526 3536 418.357 3534.9 418.357C3533.91 418.357 3533.17 418.146 3532.69 417.74 3532.2 417.316 3531.95 416.579 3531.95 415.479L3531.95 400.875C3531.95 396.075 3530.32 392.358 3527.12 389.827 3523.9 387.287 3519.27 386 3513.34 386 3507.41 386 3503.09 387.168 3499.67 389.471 3496.35 391.714 3494.44 394.906 3494.01 398.953L3504.81 398.953C3505.13 397.421 3505.98 396.185 3507.35 395.279 3508.77 394.347 3510.59 393.874 3512.76 393.874 3515.22 393.874 3517.22 394.449 3518.68 395.575 3520.16 396.718 3520.92 398.276 3520.92 400.223L3520.92 402.458 3512.27 402.458C3506.01 402.458 3501.18 403.652 3497.91 406.005 3494.65 408.342 3493 411.72 3493 416.038 3493 419.822 3494.43 422.785 3497.25 424.859 3500.08 426.942 3503.89 428 3508.55 428 3511.69 428 3514.4 427.382 3516.62 426.172 3518.83 424.961 3520.73 423.166 3522.24 420.838L3522.67 420.178 3522.65 420.965C3522.6 422.988 3523.12 424.563 3524.19 425.638L3524.2 425.646ZM3520.93 410.636C3520.88 413.54 3519.93 415.885 3518.14 417.613 3516.34 419.339 3513.87 420.22 3510.79 420.22 3508.83 420.22 3507.24 419.771 3506.07 418.882 3504.89 417.985 3504.29 416.757 3504.29 415.242 3504.29 413.456 3505 412.05 3506.41 411.068 3507.79 410.103 3509.74 409.612 3512.2 409.612L3520.93 409.612 3520.93 410.636Z" fill="#262626" fill-rule="evenodd" fill-opacity="1"/><path d="M3554.91 428 3564.34 428 3564.34 418.598 3558.54 418.598C3557 418.598 3555.87 418.242 3555.2 417.539 3554.53 416.835 3554.19 415.698 3554.19 414.152L3554.19 395.314 3579 395.314 3579 385.911 3554.19 385.911 3554.19 374 3543.01 374 3543.01 385.911 3536 385.911 3536 395.314 3543.01 395.314 3543.01 416.054C3543.01 424.084 3546.9 427.991 3554.9 427.991L3554.91 428Z" fill="#262626" fill-rule="evenodd" fill-opacity="1"/><path d="M3596 386.266 3585.28 386.266 3585.28 384.07C3585.28 381.634 3586.53 380.402 3589 380.402L3596 380.402 3596 371 3586.67 371C3582.48 371 3579.29 371.99 3577.18 373.936 3575.07 375.882 3574 378.706 3574 382.348L3574 428 3585.27 428 3585.27 395.582 3595.99 395.582 3595.99 386.257 3596 386.266Z" fill="#262626" fill-rule="evenodd" fill-opacity="1"/><path d="M3639.28 418.063C3641.09 414.914 3642 411.19 3642 407 3642 402.81 3641.09 399.154 3639.28 395.971 3637.48 392.797 3634.89 390.317 3631.58 388.599 3628.27 386.881 3624.37 386 3620 386 3615.63 386 3611.73 386.872 3608.42 388.599 3605.11 390.317 3602.53 392.797 3600.72 395.971 3598.91 399.154 3598 402.861 3598 407 3598 411.139 3598.91 414.847 3600.72 418.029 3602.52 421.203 3605.11 423.683 3608.42 425.402 3611.73 427.12 3615.63 428 3620 428 3624.37 428 3628.27 427.128 3631.58 425.402 3634.89 423.683 3637.48 421.212 3639.28 418.063ZM3627.84 415.769C3625.92 418.012 3623.28 419.155 3620 419.155 3616.72 419.155 3614.17 418.012 3612.25 415.769 3610.34 413.534 3609.36 410.581 3609.36 407 3609.36 403.42 3610.34 400.466 3612.25 398.231 3614.17 395.988 3616.78 394.845 3620 394.845 3623.22 394.845 3625.91 395.988 3627.84 398.231 3629.75 400.466 3630.72 403.42 3630.72 407 3630.72 410.581 3629.75 413.534 3627.84 415.769Z" fill="#262626" fill-rule="evenodd" fill-opacity="1"/><path d="M3669.67 396.13 3674 396.13 3674 386.009 3672.27 386.009C3669.23 386.009 3666.79 386.538 3664.99 387.586 3663.19 388.635 3661.65 390.211 3660.43 392.257L3660.12 392.768 3659 386 3649 386 3649 428 3660.02 428 3660.02 407.412C3660.02 403.963 3660.81 401.19 3662.34 399.18 3663.9 397.152 3666.36 396.121 3669.67 396.121L3669.67 396.13Z" fill="#262626" fill-rule="evenodd" fill-opacity="1"/><path d="M3727.24 395C3732.26 395 3734.81 398.282 3734.81 404.752L3734.81 427.992 3746 427.992 3746 405.162C3746 398.299 3744.58 393.342 3741.77 390.41 3738.96 387.487 3735.27 386 3730.78 386 3727.64 386 3724.8 386.607 3722.34 387.812 3719.88 389.009 3717.87 390.752 3716.36 392.992L3716.15 393.308 3715.97 392.966C3713.66 388.342 3709.48 386 3703.54 386 3700.62 386.051 3698.16 386.564 3696.22 387.522 3694.28 388.479 3692.58 389.854 3691.17 391.615L3690.88 391.992 3689.74 386.487 3680 386.487 3680 428 3691.19 428 3691.19 405.334C3691.19 402.197 3691.97 399.675 3693.51 397.821 3695.06 395.957 3697.16 395.008 3699.75 395.008 3704.82 395.008 3707.4 398.291 3707.4 404.761L3707.4 428 3718.59 428 3718.59 405.248C3718.59 402.06 3719.39 399.53 3720.95 397.735 3722.53 395.932 3724.64 395.008 3727.23 395.008L3727.24 395Z" fill="#262626" fill-rule="evenodd" fill-opacity="1"/><path d="M3457.17 481.12 3457.17 471.466 3435.86 471.466 3435.86 458.136 3462.1 458.136 3462.1 448 3424 448 3424 505 3463 505 3463 494.856 3435.86 494.856 3435.86 481.12 3457.17 481.12Z" fill="#262626" fill-rule="evenodd" fill-opacity="1"/><path d="M3490.96 472.027C3496.82 472.027 3499.78 475.752 3499.78 483.101L3499.78 505 3511 505 3511 482.45C3511 475.521 3509.41 470.502 3506.27 467.505 3503.13 464.516 3499.06 463 3494.18 463 3491.14 463 3488.55 463.497 3486.49 464.49 3484.44 465.475 3482.66 466.871 3481.19 468.635L3480.89 468.995 3479.77 463.488 3470 463.488 3470 505 3481.22 505 3481.22 483.752C3481.22 480.069 3482.07 477.166 3483.75 475.127 3485.44 473.072 3487.87 472.027 3490.96 472.027Z" fill="#262626" fill-rule="evenodd" fill-opacity="1"/><path d="M3560.99 503.464 3560.99 463.565 3551.09 463.565 3550.03 469.588 3549.72 469.183C3546.5 465.083 3542.08 463 3536.58 463 3532.87 463 3529.47 463.852 3526.5 465.539 3523.53 467.226 3521.17 469.655 3519.52 472.768 3517.85 475.881 3517 479.525 3517 483.599 3517 487.673 3517.85 491.385 3519.52 494.472 3521.18 497.559 3523.52 499.972 3526.47 501.658 3529.41 503.346 3532.79 504.198 3536.51 504.198 3542.13 504.198 3546.52 502.308 3549.57 498.571L3549.97 498.082 3549.97 503.05C3549.97 506.264 3549.02 508.719 3547.15 510.364 3545.28 512 3542.62 512.835 3539.25 512.835 3536.55 512.835 3534.34 512.279 3532.68 511.191 3531.04 510.119 3529.93 508.592 3529.34 506.644L3517.93 506.644C3518.26 511.157 3520.24 514.708 3523.82 517.179 3527.48 519.71 3532.36 521 3538.34 521 3546.07 521 3551.84 519.398 3555.5 516.234 3559.15 513.08 3561 508.778 3561 503.455L3560.99 503.464ZM3546.99 492.27C3545.07 494.455 3542.46 495.56 3539.24 495.56 3536.03 495.56 3533.41 494.455 3531.45 492.27 3529.52 490.094 3528.53 487.209 3528.53 483.692 3528.53 480.174 3529.52 477.272 3531.45 475.071 3533.4 472.861 3536.02 471.739 3539.24 471.739 3542.47 471.739 3545.07 472.878 3546.99 475.113 3548.9 477.34 3549.87 480.25 3549.87 483.776 3549.87 487.302 3548.9 490.102 3546.99 492.279L3546.99 492.27Z" fill="#262626" fill-rule="evenodd" fill-opacity="1"/><path d="M3581 463 3570 463 3570 505 3581 505 3581 463Z" fill="#262626" fill-rule="evenodd" fill-opacity="1"/><path d="M3570.87 456.262C3572.12 457.418 3573.68 458 3575.53 458 3577.39 458 3578.94 457.418 3580.17 456.262 3581.38 455.106 3582 453.664 3582 451.959 3582 450.254 3581.39 448.82 3580.17 447.697 3578.96 446.574 3577.4 446 3575.54 446 3573.68 446 3572.12 446.574 3570.87 447.697 3569.63 448.82 3569 450.254 3569 451.959 3569 453.664 3569.63 455.106 3570.87 456.262Z" fill="#262626" fill-rule="evenodd" fill-opacity="1"/><path d="M3609.96 472.027C3615.82 472.027 3618.78 475.752 3618.78 483.101L3618.78 505 3630 505 3630 482.45C3630 475.521 3628.41 470.503 3625.27 467.505 3622.13 464.516 3618.07 463 3613.18 463 3610.14 463 3607.55 463.497 3605.5 464.49 3603.45 465.475 3601.67 466.871 3600.2 468.635L3599.9 468.995 3598.76 463.488 3589 463.488 3589 505 3600.22 505 3600.22 483.752C3600.22 480.069 3601.07 477.165 3602.75 475.127 3604.45 473.072 3606.87 472.027 3609.96 472.027Z" fill="#262626" fill-rule="evenodd" fill-opacity="1"/><path d="M3676.17 472.296C3674.36 469.358 3671.79 467.055 3668.55 465.438 3665.32 463.821 3661.51 463 3657.25 463 3652.99 463 3649.31 463.872 3646.13 465.591 3642.94 467.309 3640.43 469.781 3638.67 472.931 3636.91 476.08 3636 479.839 3636 484.081 3636 488.322 3636.92 491.997 3638.75 495.146 3640.57 498.295 3643.22 500.75 3646.61 502.443 3650.02 504.137 3654.13 505 3658.82 505 3662.42 505 3665.65 504.365 3668.42 503.121 3671.2 501.876 3673.45 500.149 3675.14 497.982 3676.76 495.882 3677.83 493.503 3678.29 490.913L3667.2 490.913C3666.68 492.817 3665.62 494.282 3664.05 495.273 3662.44 496.289 3660.4 496.796 3658 496.796 3654.96 496.796 3652.53 495.908 3650.79 494.147 3649.05 492.394 3648.02 489.965 3647.74 486.916L3647.74 486.358 3678.7 486.358C3678.89 485.291 3679 484.064 3679 482.701 3678.95 478.73 3677.99 475.225 3676.17 472.287L3676.17 472.296ZM3647.96 479.382 3648 479.136C3648.33 476.673 3649.4 474.683 3651.18 473.227 3652.95 471.771 3655.16 471.035 3657.75 471.035 3660.33 471.035 3662.71 471.746 3664.48 473.142 3666.26 474.548 3667.36 476.563 3667.75 479.128L3667.79 479.382 3647.95 479.382 3647.96 479.382Z" fill="#262626" fill-rule="evenodd" fill-opacity="1"/><path d="M3724.17 472.296C3722.35 469.358 3719.79 467.055 3716.55 465.438 3713.32 463.821 3709.51 463 3705.25 463 3700.99 463 3697.31 463.872 3694.13 465.591 3690.94 467.309 3688.44 469.781 3686.67 472.931 3684.91 476.08 3684 479.839 3684 484.081 3684 488.322 3684.92 491.997 3686.75 495.146 3688.57 498.295 3691.22 500.75 3694.61 502.443 3698.02 504.137 3702.13 505 3706.82 505 3710.42 505 3713.65 504.365 3716.42 503.121 3719.2 501.876 3721.45 500.149 3723.14 497.982 3724.77 495.882 3725.83 493.503 3726.29 490.913L3715.2 490.913C3714.68 492.817 3713.61 494.282 3712.05 495.273 3710.44 496.289 3708.4 496.796 3706 496.796 3702.97 496.796 3700.54 495.908 3698.79 494.147 3697.05 492.394 3696.02 489.965 3695.75 486.916L3695.75 486.358 3726.7 486.358C3726.9 485.291 3727 484.064 3727 482.701 3726.95 478.73 3725.99 475.225 3724.17 472.287L3724.17 472.296ZM3695.96 479.382 3696 479.136C3696.33 476.673 3697.4 474.683 3699.18 473.227 3700.95 471.771 3703.17 471.035 3705.75 471.035 3708.33 471.035 3710.71 471.746 3712.48 473.142 3714.26 474.548 3715.36 476.563 3715.75 479.128L3715.79 479.382 3695.95 479.382 3695.96 479.382Z" fill="#262626" fill-rule="evenodd" fill-opacity="1"/><path d="M3754.67 473.13 3759 473.13 3759 463.009 3757.27 463.009C3754.23 463.009 3751.78 463.538 3749.98 464.586 3748.18 465.635 3746.65 467.211 3745.43 469.257L3745.12 469.768 3744 463 3734 463 3734 505 3745.02 505 3745.02 484.412C3745.02 480.963 3745.8 478.191 3747.34 476.18 3748.89 474.152 3751.36 473.121 3754.67 473.121L3754.67 473.13Z" fill="#262626" fill-rule="evenodd" fill-opacity="1"/><path d="M3776 463 3765 463 3765 505 3776 505 3776 463Z" fill="#262626" fill-rule="evenodd" fill-opacity="1"/><path d="M3765.86 456.262C3767.11 457.418 3768.67 458 3770.53 458 3772.4 458 3773.94 457.418 3775.17 456.262 3776.38 455.106 3777 453.664 3777 451.959 3777 450.254 3776.39 448.82 3775.17 447.697 3773.95 446.574 3772.41 446 3770.54 446 3768.68 446 3767.11 446.574 3765.87 447.697 3764.63 448.82 3764 450.254 3764 451.959 3764 453.664 3764.63 455.106 3765.87 456.262L3765.86 456.262Z" fill="#262626" fill-rule="evenodd" fill-opacity="1"/><path d="M3804.96 472.027C3810.82 472.027 3813.78 475.752 3813.78 483.101L3813.78 505 3825 505 3825 482.45C3825 475.521 3823.41 470.502 3820.27 467.505 3817.13 464.516 3813.07 463 3808.18 463 3805.14 463 3802.55 463.497 3800.49 464.49 3798.44 465.475 3796.66 466.871 3795.19 468.635L3794.9 468.995 3793.77 463.488 3784 463.488 3784 505 3795.22 505 3795.22 483.752C3795.22 480.069 3796.07 477.166 3797.75 475.127 3799.45 473.072 3801.87 472.027 3804.96 472.027Z" fill="#262626" fill-rule="evenodd" fill-opacity="1"/><path d="M3874.98 503.464 3874.98 463.565 3865.08 463.565 3864.03 469.588 3863.71 469.183C3860.5 465.084 3856.08 463 3850.58 463 3846.86 463 3843.47 463.852 3840.5 465.539 3837.53 467.226 3835.17 469.655 3833.51 472.768 3831.85 475.881 3831 479.525 3831 483.599 3831 487.673 3831.85 491.385 3833.51 494.472 3835.18 497.559 3837.51 499.972 3840.46 501.658 3843.41 503.346 3846.79 504.198 3850.51 504.198 3856.12 504.198 3860.51 502.308 3863.56 498.571L3863.96 498.082 3863.96 503.05C3863.96 506.264 3863.01 508.719 3861.14 510.364 3859.27 512 3856.62 512.835 3853.25 512.835 3850.55 512.835 3848.34 512.278 3846.67 511.191 3845.04 510.119 3843.92 508.592 3843.35 506.644L3831.94 506.644C3832.26 511.157 3834.25 514.708 3837.83 517.179 3841.49 519.71 3846.37 521 3852.34 521 3860.07 521 3865.84 519.398 3869.5 516.234 3873.15 513.08 3875 508.778 3875 503.455L3874.98 503.464ZM3860.98 492.27C3859.07 494.455 3856.45 495.56 3853.24 495.56 3850.03 495.56 3847.41 494.455 3845.45 492.27 3843.51 490.094 3842.53 487.209 3842.53 483.692 3842.53 480.174 3843.51 477.272 3845.45 475.071 3847.4 472.861 3850.02 471.739 3853.24 471.739 3856.46 471.739 3859.07 472.878 3860.98 475.113 3862.9 477.34 3863.87 480.25 3863.87 483.776 3863.87 487.302 3862.9 490.102 3860.98 492.279L3860.98 492.27Z" fill="#262626" fill-rule="evenodd" fill-opacity="1"/><path d="M3319 352 3249 391.531 3249 395.459 3279.71 411.931 3299.48 422.53 3313.99 430.308 3319 433 3324.01 430.308 3338.52 422.53 3358.29 411.931 3389 395.459 3389 391.531 3319 352ZM3338.76 400.904 3319 411.503 3299.23 400.904 3284.72 393.118 3319 373.764 3353.27 393.118 3338.76 400.904Z" fill="#7957FF" fill-rule="evenodd" fill-opacity="1"/><path d="M3357.98 450 3338.52 460.446 3338.21 460.601 3338.52 460.773 3353.27 469.109 3319 487.498 3288.89 471.348 3264.94 458.517 3249 467.523 3249 471.451 3319 509 3389 471.451 3389 467.523 3358.29 450.172 3357.98 450Z" fill="#7957FF" fill-rule="evenodd" fill-opacity="1"/><path d="M3345.26 435.405 3338.76 438.896 3319 449.492 3299.24 438.905 3284.72 431.106 3299.48 422.784 3299.79 422.604 3299.48 422.433 3280.02 412 3279.71 412.172 3249 429.528 3249 433.44 3279.72 449.921 3299.48 460.533 3319 471 3338.52 460.533 3358.29 449.921 3389 433.44 3389 429.528 3373.06 420.511 3345.26 435.405Z" fill="#0CD474" fill-rule="evenodd" fill-opacity="1"/></g></g></svg>