<svg width="76" height="76" xmlns="http://www.w3.org/2000/svg" xmlns:xlink="http://www.w3.org/1999/xlink" xml:space="preserve" overflow="hidden"><g transform="translate(-1093 -277)"><g><g><g><g><path d="M1131.49 294.895 1111.34 306.997 1131.5 319.142 1151.65 307.041 1131.49 294.895Z" fill="#FFC000" fill-rule="nonzero" fill-opacity="1"/><path d="M1121.08 332.684 1109.47 325.643 1109.47 334.3 1130.31 346.935 1130.31 324.304 1121.08 332.684Z" fill="#FFC000" fill-rule="nonzero" fill-opacity="1"/><path d="M1141.89 332.688 1132.67 324.309 1132.67 346.935 1153.52 334.3 1153.52 325.638ZM1140.07 339.01 1135.36 341.7 1135.36 336.99 1140.07 334.3Z" fill="#FFC000" fill-rule="nonzero" fill-opacity="1"/><path d="M1130.31 292.874 1120.8 284.242 1099.83 296.956 1109.24 305.523 1130.31 292.874Z" fill="#FFC000" fill-rule="nonzero" fill-opacity="1"/><path d="M1153.71 305.546 1163.15 296.956 1142.17 284.242 1132.67 292.87 1153.71 305.546Z" fill="#FFC000" fill-rule="nonzero" fill-opacity="1"/><path d="M1109.26 308.478 1099.83 317.06 1120.8 329.773 1130.29 321.154 1109.26 308.478Z" fill="#FFC000" fill-rule="nonzero" fill-opacity="1"/><path d="M1132.69 321.16 1142.17 329.773 1163.15 317.06 1153.76 308.51 1132.69 321.16Z" fill="#FFC000" fill-rule="nonzero" fill-opacity="1"/></g></g></g></g></g></svg>