<svg width="77" height="78" xmlns="http://www.w3.org/2000/svg" xmlns:xlink="http://www.w3.org/1999/xlink" xml:space="preserve" overflow="hidden"><g transform="translate(-661 -382)"><g><g><g><g><path d="M700.082 389.333C682.637 389.333 668.498 403.473 668.498 420.918 668.498 434.87 677.545 446.71 690.098 450.89 691.678 451.175 692.248 450.203 692.248 449.367 692.248 448.617 692.223 446.628 692.213 443.996 683.426 445.903 681.57 439.759 681.57 439.759 680.139 436.111 678.065 435.139 678.065 435.139 675.199 433.179 678.283 433.223 678.283 433.223 681.456 433.445 683.119 436.479 683.119 436.479 685.937 441.305 690.516 439.911 692.308 439.104 692.596 437.061 693.42 435.668 694.319 434.879 687.308 434.085 679.936 431.374 679.936 419.268 679.936 415.826 681.168 413.001 683.179 410.797 682.859 409.996 681.766 406.782 683.492 402.437 683.492 402.437 686.143 401.585 692.175 405.67 694.752 404.969 697.409 404.612 700.079 404.606 702.749 404.611 705.407 404.968 707.983 405.67 714.019 401.582 716.666 402.437 716.666 402.437 718.392 406.782 717.309 409.996 716.98 410.797 719.006 413.001 720.222 415.823 720.222 419.268 720.222 431.406 712.844 434.072 705.808 434.854 706.932 435.829 707.945 437.755 707.945 440.7 707.945 444.924 707.907 448.332 707.907 449.367 707.907 450.212 708.471 451.194 710.083 450.884 722.629 446.698 731.667 434.867 731.667 420.918 731.667 403.473 717.528 389.333 700.082 389.333Z" fill="#4337CA" fill-rule="evenodd" fill-opacity="1"/></g></g></g></g></g></svg>