<svg width="76" height="77" xmlns="http://www.w3.org/2000/svg" xmlns:xlink="http://www.w3.org/1999/xlink" xml:space="preserve" overflow="hidden"><g transform="translate(-504 -57)"><g><g><g><g><path d="M567.333 70.6667 516.667 70.6667C513.169 70.6667 510.333 73.5022 510.333 77L510.333 115C510.333 118.498 513.169 121.333 516.667 121.333L567.333 121.333C570.831 121.333 573.667 118.498 573.667 115L573.667 77C573.667 73.5022 570.831 70.6667 567.333 70.6667ZM524.311 107.739 519.833 103.261 527.094 96 519.833 88.7388 524.311 84.2612 536.05 96 524.311 107.739ZM564.167 108.667 542 108.667 542 102.333 564.167 102.333 564.167 108.667Z" fill="#262626" fill-rule="nonzero" fill-opacity="1"/></g></g></g></g></g></svg>