<svg width="76" height="76" xmlns="http://www.w3.org/2000/svg" xmlns:xlink="http://www.w3.org/1999/xlink" xml:space="preserve" overflow="hidden"><g transform="translate(-628 -348)"><g><path d="M696.378 370.81C695.644 368.086 693.52 365.957 690.798 365.217 685.839 363.855 666 363.833 666 363.833 666 363.833 646.164 363.811 641.202 365.113 638.484 365.886 636.365 368.02 635.609 370.743 634.302 375.702 634.289 385.987 634.289 385.987 634.289 385.987 634.276 396.323 635.575 401.232 636.303 403.945 638.44 406.089 641.157 406.821 646.167 408.182 665.953 408.205 665.953 408.205 665.953 408.205 685.792 408.227 690.751 406.928 693.473 406.19 695.601 404.066 696.346 401.346 697.657 396.39 697.667 386.108 697.667 386.108 697.667 386.108 697.73 375.768 696.378 370.81ZM659.654 395.516 659.67 376.516 676.159 386.032 659.654 395.516Z" fill="#FF0000" fill-rule="nonzero" fill-opacity="1"/></g></g></svg>