<svg width="76" height="76" xmlns="http://www.w3.org/2000/svg" xmlns:xlink="http://www.w3.org/1999/xlink" xml:space="preserve" overflow="hidden"><g transform="translate(-592 -312)"><g><path d="M624.247 380.23 660.083 371.58 660.083 332.218 634.001 319.798 599.917 327.235 599.917 367.129ZM633.426 324.785 650.476 332.905 636.673 335.999 624.918 338.633 609.07 330.099ZM604.667 364.292 604.667 333.123 622.198 342.564 622.198 373.733ZM655.333 367.84 626.948 374.692 626.948 343.047 639.285 340.281 655.333 336.684Z" fill="#4337CA" fill-rule="nonzero" fill-opacity="1"/><path d="M632.921 326.397 634.505 326.397 634.505 329.564 632.921 329.564Z" fill="#4337CA" fill-rule="nonzero" fill-opacity="1"/><path d="M632.921 343.022 634.505 343.022 634.505 346.189 632.921 346.189Z" fill="#4337CA" fill-rule="nonzero" fill-opacity="1"/><path d="M632.921 348.564 634.505 348.564 634.505 351.731 632.921 351.731Z" fill="#4337CA" fill-rule="nonzero" fill-opacity="1"/><path d="M632.921 331.939 634.505 331.939 634.505 335.106 632.921 335.106Z" fill="#4337CA" fill-rule="nonzero" fill-opacity="1"/><path d="M632.921 354.106 634.505 354.106 634.505 357.272 632.921 357.272Z" fill="#4337CA" fill-rule="nonzero" fill-opacity="1"/><path d="M644.474 364.591 645.126 363.149 648.011 364.454 647.359 365.897Z" fill="#4337CA" fill-rule="nonzero" fill-opacity="1"/><path d="M629.19 359.031 632.284 358.357 632.621 359.904 629.527 360.578Z" fill="#4337CA" fill-rule="nonzero" fill-opacity="1"/><path d="M607.533 363.757 610.628 363.082 610.965 364.629 607.87 365.304Z" fill="#4337CA" fill-rule="nonzero" fill-opacity="1"/><path d="M639.424 362.308 640.077 360.865 642.961 362.17 642.309 363.613Z" fill="#4337CA" fill-rule="nonzero" fill-opacity="1"/><path d="M649.522 366.875 650.175 365.433 653.06 366.738 652.408 368.181Z" fill="#4337CA" fill-rule="nonzero" fill-opacity="1"/><path d="M634.376 360.023 635.028 358.581 637.914 359.886 637.261 361.328Z" fill="#4337CA" fill-rule="nonzero" fill-opacity="1"/><path d="M612.947 362.576 616.041 361.901 616.378 363.449 613.284 364.123Z" fill="#4337CA" fill-rule="nonzero" fill-opacity="1"/><path d="M618.362 361.395 621.456 360.72 621.793 362.267 618.699 362.942Z" fill="#4337CA" fill-rule="nonzero" fill-opacity="1"/></g></g></svg>