<svg width="76" height="76" xmlns="http://www.w3.org/2000/svg" xmlns:xlink="http://www.w3.org/1999/xlink" xml:space="preserve" overflow="hidden"><g transform="translate(-592 -312)"><g><path d="M653.908 349.921C653.671 349.921 653.354 349.921 653.117 349.921 653.117 349.921 653.117 349.921 653.117 349.921 653.117 346.042 651.217 342.479 648.129 340.263 644.963 338.046 640.925 337.492 637.283 338.758 634.275 332.9 627.625 329.892 621.292 331.396 614.958 332.9 610.367 338.6 610.367 345.171 610.367 345.171 610.367 345.25 610.367 345.329 606.013 344.617 601.658 346.438 598.967 349.921 596.354 353.483 595.879 358.154 597.7 362.112 599.6 366.071 603.558 368.683 607.912 368.921L607.912 369 653.829 369C659.054 369 663.329 364.725 663.329 359.5 663.329 354.275 659.133 349.921 653.908 349.921Z" fill="#4337CA" fill-rule="nonzero" fill-opacity="1"/></g></g></svg>