<svg width="77" height="76" xmlns="http://www.w3.org/2000/svg" xmlns:xlink="http://www.w3.org/1999/xlink" xml:space="preserve" overflow="hidden"><g transform="translate(-428 -301)"><g><g><g><g><path d="M62.5 9.375 12.5 9.375C9.05313 9.375 6.25 12.1781 6.25 15.625L6.25 59.375C6.25 62.8219 9.05313 65.625 12.5 65.625L62.5 65.625C65.9469 65.625 68.75 62.8219 68.75 59.375L68.75 15.625C68.75 12.1781 65.9469 9.375 62.5 9.375ZM53.125 18.75 59.375 18.75 59.375 25 53.125 25 53.125 18.75ZM43.75 18.75 50 18.75 50 25 43.75 25 43.75 18.75ZM12.5 59.375 12.5 31.25 62.5031 31.25 62.5063 59.375 12.5 59.375Z" fill="#4337CA" fill-rule="nonzero" fill-opacity="1" transform="matrix(1.01333 0 0 1 429 302)"/></g></g></g></g></g></svg>