<svg width="77" height="76" xmlns="http://www.w3.org/2000/svg" xmlns:xlink="http://www.w3.org/1999/xlink" xml:space="preserve" overflow="hidden"><g transform="translate(-601 -172)"><g><g><g><g><path d="M665.333 178.333 633.667 178.333C630.174 178.333 627.333 181.174 627.333 184.667L627.333 197.333 614.667 197.333C611.174 197.333 608.333 200.174 608.333 203.667L608.333 235.333C608.333 238.826 611.174 241.667 614.667 241.667L646.333 241.667C649.826 241.667 652.667 238.826 652.667 235.333L652.667 222.667 665.333 222.667C668.826 222.667 671.667 219.826 671.667 216.333L671.667 184.667C671.667 181.174 668.826 178.333 665.333 178.333ZM614.667 235.333 614.667 203.667 646.333 203.667 646.34 235.333 614.667 235.333ZM665.333 216.333 652.667 216.333 652.667 203.667C652.667 200.174 649.826 197.333 646.333 197.333L633.667 197.333 633.667 184.667 665.333 184.667 665.333 216.333Z" fill="#4337CA" fill-rule="nonzero" fill-opacity="1"/></g></g></g></g></g></svg>