<svg width="76" height="76" xmlns="http://www.w3.org/2000/svg" xmlns:xlink="http://www.w3.org/1999/xlink" xml:space="preserve" overflow="hidden"><g transform="translate(-93 -437)"><g><g><g><g><path d="M129.633 491.234C129.633 493.193 128.045 494.781 126.086 494.781 124.127 494.781 122.539 493.193 122.539 491.234 122.539 489.275 124.127 487.688 126.086 487.688 128.045 487.688 129.633 489.275 129.633 491.234Z" fill="#4337CA" fill-rule="nonzero" fill-opacity="1"/><path d="M133.062 502.844 133.062 499.297C133.051 498.744 132.793 498.226 132.359 497.883 131.34 497.097 130.174 496.523 128.93 496.195 127.99 495.907 127.014 495.76 126.031 495.758 125.05 495.773 124.075 495.92 123.133 496.195 121.902 496.56 120.743 497.13 119.703 497.883 119.269 498.226 119.012 498.744 119 499.297L119 502.844Z" fill="#4337CA" fill-rule="nonzero" fill-opacity="1"/><path d="M145.148 491.234C145.148 493.193 143.56 494.781 141.602 494.781 139.643 494.781 138.055 493.193 138.055 491.234 138.055 489.275 139.643 487.688 141.602 487.688 143.56 487.688 145.148 489.275 145.148 491.234Z" fill="#4337CA" fill-rule="nonzero" fill-opacity="1"/><path d="M148.688 502.844 148.688 499.297C148.676 498.744 148.418 498.226 147.984 497.883 146.965 497.097 145.799 496.523 144.555 496.195 143.615 495.907 142.639 495.76 141.656 495.758 140.675 495.773 139.7 495.92 138.758 496.195 137.527 496.56 136.368 497.13 135.328 497.883 134.894 498.226 134.637 498.744 134.625 499.297L134.625 502.844Z" fill="#4337CA" fill-rule="nonzero" fill-opacity="1"/><path d="M160.773 491.234C160.773 493.193 159.185 494.781 157.227 494.781 155.268 494.781 153.68 493.193 153.68 491.234 153.68 489.275 155.268 487.688 157.227 487.688 159.185 487.688 160.773 489.275 160.773 491.234Z" fill="#4337CA" fill-rule="nonzero" fill-opacity="1"/><path d="M164.312 502.844 164.312 499.297C164.301 498.744 164.043 498.226 163.609 497.883 162.59 497.097 161.424 496.523 160.18 496.195 159.24 495.907 158.264 495.76 157.281 495.758 156.3 495.773 155.325 495.92 154.383 496.195 153.152 496.56 151.993 497.13 150.953 497.883 150.519 498.226 150.262 498.744 150.25 499.297L150.25 502.844Z" fill="#4337CA" fill-rule="nonzero" fill-opacity="1"/><path d="M115.422 458.438C115.422 461 113.344 463.078 110.781 463.078 108.218 463.078 106.141 461 106.141 458.438 106.141 455.875 108.218 453.797 110.781 453.797 113.344 453.797 115.422 455.875 115.422 458.438Z" fill="#4337CA" fill-rule="nonzero" fill-opacity="1"/><path d="M138.148 456.648C137.689 456.196 136.951 456.196 136.492 456.648L126.398 466.742C125.592 466.515 124.725 466.735 124.125 467.32 123.961 467.484 121.047 472.25 121.047 472.25L120.172 468.523C120.056 468.043 119.816 467.601 119.477 467.242 118.037 466.078 116.379 465.212 114.602 464.695 113.345 464.426 112.066 464.272 110.781 464.234 109.485 464.254 108.197 464.449 106.953 464.812 105.159 465.283 103.495 466.154 102.086 467.359 101.743 467.716 101.503 468.159 101.391 468.641 101.391 468.641 98.0234 482.781 98.0234 483.016 98.0234 484.31 99.0728 485.359 100.367 485.359 101.405 485.333 102.301 484.627 102.57 483.625L105.008 473.539 105.008 505.969 109.625 505.969 109.625 485.102 111.969 485.102 111.969 505.969 116.578 505.969 116.578 473.391 117.438 477.062C117.497 477.316 117.666 477.531 117.898 477.648 118.797 478.338 119.891 478.724 121.023 478.75 121.761 478.853 122.491 478.521 122.898 477.898L127.664 470.086C127.969 469.606 128.083 469.029 127.984 468.469L138.141 458.312C138.601 457.854 138.604 457.111 138.148 456.648Z" fill="#4337CA" fill-rule="nonzero" fill-opacity="1"/><path d="M154.156 445.812 115.875 445.812C114.149 445.812 112.75 447.212 112.75 448.938L112.75 451.75C113.945 452.075 115.026 452.724 115.875 453.625L115.875 448.938 154.156 448.938 154.156 474.719 127.492 474.719 125.586 477.844 154.156 477.844C155.882 477.844 157.281 476.445 157.281 474.719L157.281 448.938C157.281 447.212 155.882 445.812 154.156 445.812Z" fill="#4337CA" fill-rule="nonzero" fill-opacity="1"/></g></g></g></g></g></svg>