<svg width="104" height="112" viewBox="0 0 208 224" fill="none" xmlns="http://www.w3.org/2000/svg">
<path d="M199.68 50.1306L111.68 1.98065C109.329 0.681471 106.686 0 104 0C101.314 0 98.6713 0.681471 96.32 1.98065L8.32 50.1506C5.80688 51.5257 3.70903 53.5503 2.24552 56.0129C0.782002 58.4755 0.00650258 61.286 0 64.1507V159.791C0.00650258 162.655 0.782002 165.466 2.24552 167.928C3.70903 170.391 5.80688 172.416 8.32 173.791L96.32 221.961C98.6713 223.26 101.314 223.941 104 223.941C106.686 223.941 109.329 223.26 111.68 221.961L199.68 173.791C202.193 172.416 204.291 170.391 205.754 167.928C207.218 165.466 207.993 162.655 208 159.791V64.1606C207.999 61.2909 207.226 58.4742 205.762 56.0058C204.298 53.5374 202.198 51.5081 199.68 50.1306ZM104 103.981L23.65 59.9806L104 15.9806L184.35 59.9806L104 103.981ZM112 203.621V117.811L192 74.0307V159.791L112 203.621Z" fill="#32ACFF"/>
<ellipse cx="60" cy="122.5" rx="6" ry="10.5" fill="black"/>
<ellipse cx="60" cy="122.5" rx="6" ry="10.5" fill="black"/>
<ellipse cx="60" cy="122.5" rx="6" ry="10.5" fill="black"/>
<ellipse cx="35" cy="112.5" rx="6" ry="10.5" fill="black"/>
<ellipse cx="35" cy="112.5" rx="6" ry="10.5" fill="black"/>
<ellipse cx="35" cy="112.5" rx="6" ry="10.5" fill="black"/>
<ellipse cx="33.4286" cy="109.5" rx="1.42857" ry="2.5" fill="black"/>
<ellipse cx="33.4286" cy="109.5" rx="1.42857" ry="2.5" fill="black"/>
<ellipse cx="33.4286" cy="109.5" rx="1.42857" ry="2.5" fill="white"/>
<ellipse cx="58.4286" cy="120.5" rx="1.42857" ry="2.5" fill="black"/>
<ellipse cx="58.4286" cy="120.5" rx="1.42857" ry="2.5" fill="black"/>
<ellipse cx="58.4286" cy="120.5" rx="1.42857" ry="2.5" fill="white"/>
<path d="M53.9862 141.141C53.4906 142.486 52.6393 143.736 51.4324 144.891C50.2254 146.045 48.7909 146.985 47.1288 147.71C45.4471 148.444 43.7585 148.854 42.0629 148.942C40.3575 149.035 38.8257 148.778 37.4674 148.171L36.3927 145.707L36.6274 145.605C38.092 146.188 39.6595 146.447 41.3301 146.382C42.9908 146.321 44.574 145.962 46.0797 145.305C47.5756 144.653 48.9005 143.755 50.0543 142.611C51.2081 141.468 52.0802 140.186 52.6705 138.765L52.9052 138.662L53.9862 141.141Z" fill="black"/>
</svg>
