<svg width="94" height="95" xmlns="http://www.w3.org/2000/svg" xmlns:xlink="http://www.w3.org/1999/xlink" xml:space="preserve" overflow="hidden"><g transform="translate(-122 -165)"><g><g><g><g><path d="M47.0092 7.75 21.6839 16.136 26.2167 19.4033 51.573 11.0069ZM26.2167 19.4033 21.6839 16.1364 21.6839 72.2972 26.2167 75.9984ZM52.4853 11.658 27.3501 19.9811 27.3501 76.923 31.8829 80.6242 31.8829 23.3806 57.1762 15.0052ZM58.1839 15.7243 33.016 24.0579 33.016 54.0747 33.016 81.5488 37.5491 85.25 71.3161 74.0695 71.3161 46.2931 66.7833 42.8935 62.8748 44.1876 62.8748 43.1351 65.6502 42.2162 62.8748 40.1345 62.8748 19.0719ZM58.1839 20.6251 58.1839 45.7411 37.5491 52.5737 37.5491 52.463 37.5491 27.4577ZM57.1762 22.1522 52.4853 23.7057 52.4853 41.6747 38.6824 46.2454 38.6824 51.1459 57.1005 45.0473 57.176 45.1058 57.176 45.0252 57.176 40.1249ZM51.573 24.0079 47.0092 25.519 47.0092 37.7468 47.0313 37.7615 38.6851 40.5253 38.6851 45.2933 51.5757 41.0248 51.5757 36.2564ZM66.7833 47.7941 66.7833 70.3683 37.5491 80.0478 37.5491 61.9523 37.5491 58.0523 37.5491 57.4746 62.8744 49.0889ZM65.6502 49.3553 61.1171 50.8563 61.1171 65.7421 38.6824 73.172 38.6824 78.3736 65.6502 69.4437ZM59.984 51.2314 55.4511 52.7327 55.4511 61.1165 38.6824 66.6688 38.6824 71.871 59.984 64.8173Z" fill="#262626" fill-rule="nonzero" fill-opacity="1" transform="matrix(1 0 0 1.01075 123 166)"/></g></g></g></g></g></svg>