<svg width="85" height="86" xmlns="http://www.w3.org/2000/svg" xmlns:xlink="http://www.w3.org/1999/xlink" xml:space="preserve" overflow="hidden"><g transform="translate(-893 -226)"><g><g><g><g><path d="M42.4599 7 19.5855 14.5745 23.6796 17.5255 46.582 9.94172ZM23.6796 17.5255 19.5855 14.5748 19.5855 65.3007 23.6796 68.6437ZM47.4061 10.5298 24.7034 18.0474 24.7034 69.4789 28.7975 72.8219 28.7975 21.118 51.643 13.5531ZM52.5532 14.2026 29.8209 21.7297 29.8209 48.8416 29.8209 73.657 33.9153 77 64.4145 66.9015 64.4145 41.8131 60.3204 38.7425 56.7901 39.9114 56.7901 38.9608 59.297 38.1307 56.7901 36.2505 56.7901 17.2262ZM52.5532 18.6291 52.5532 41.3145 33.9153 47.4859 33.9153 47.386 33.9153 24.8005ZM51.643 20.0084 47.4061 21.4116 47.4061 37.6416 34.9389 41.7701 34.9389 46.1963 51.5746 40.6879 51.6429 40.7407 51.6429 40.6679 51.6429 36.2418ZM46.582 21.6846 42.4599 23.0494 42.4599 34.0938 42.4799 34.1071 34.9414 36.6035 34.9414 40.9101 46.5845 37.0547 46.5845 32.7477ZM60.3204 43.1688 60.3204 63.5584 33.9153 72.3012 33.9153 55.957 33.9153 52.4344 33.9153 51.9125 56.7898 44.3384ZM59.297 44.579 55.2025 45.9347 55.2025 59.38 34.9389 66.0909 34.9389 70.7891 59.297 62.7233ZM54.1791 46.2735 50.0848 47.6296 50.0848 55.202 34.9389 60.217 34.9389 64.9157 54.1791 58.5447Z" fill="#262626" fill-rule="nonzero" fill-opacity="1" transform="matrix(1 0 0 1.0119 894 227)"/></g></g></g></g></g></svg>