<svg width="77" height="78" xmlns="http://www.w3.org/2000/svg" xmlns:xlink="http://www.w3.org/1999/xlink" xml:space="preserve" overflow="hidden"><g transform="translate(-1093 -94)"><g><g><g><g><path d="M1122.5 158.333 1141.5 158.333 1141.5 164.667 1122.5 164.667ZM1147.54 138.421C1150.8 134.602 1154.17 130.654 1154.17 123.5 1154.17 111.28 1144.22 101.333 1132 101.333 1119.78 101.333 1109.83 111.28 1109.83 123.5 1109.83 130.736 1113.21 134.672 1116.49 138.478 1117.62 139.802 1118.8 141.173 1119.92 142.75 1120.38 143.402 1121.12 145.904 1121.79 148.833L1119.33 148.833 1119.33 155.167 1144.67 155.167 1144.67 148.833 1142.22 148.833C1142.89 145.898 1143.64 143.39 1144.09 142.738 1145.21 141.145 1146.39 139.761 1147.54 138.421ZM1138.91 139.096C1137.54 141.05 1136.39 145.667 1135.72 148.833L1128.28 148.833C1127.62 145.66 1126.47 141.034 1125.08 139.08 1123.89 137.447 1122.63 135.871 1121.29 134.355 1118.21 130.764 1116.17 128.389 1116.17 123.5 1116.17 114.77 1123.27 107.667 1132 107.667 1140.73 107.667 1147.83 114.77 1147.83 123.5 1147.83 128.316 1145.8 130.701 1142.72 134.308 1141.54 135.695 1140.2 137.262 1138.91 139.096Z" fill="#262626" fill-rule="nonzero" fill-opacity="1"/></g></g></g></g></g></svg>