<svg width="400" height="77" xmlns="http://www.w3.org/2000/svg" xmlns:xlink="http://www.w3.org/1999/xlink" xml:space="preserve" overflow="hidden"><g transform="translate(-560 -93)"><g><g><g><g><path d="M98.5096 33.2681C100.004 33.2681 101.398 32.9693 102.793 32.3717 104.087 31.7741 105.283 30.778 106.179 29.5827L110.263 33.7662C107.076 37.352 103.39 39.1448 99.0076 39.1448 97.0155 39.2445 95.123 38.9456 93.2305 38.1488 91.4376 37.4516 89.7443 36.3559 88.2502 35.061 86.8557 33.7662 85.7601 32.0729 85.0629 30.3796 84.3656 28.5867 83.9672 26.6942 84.0668 24.8017 83.9672 22.9092 84.3656 20.9171 85.0629 19.1242 85.7601 17.3313 86.8557 15.7376 88.2502 14.3432 89.7443 12.9487 91.5372 11.853 93.4297 11.1558 95.3222 10.4585 97.4139 10.1597 99.5056 10.2593 101.597 10.3589 103.589 10.857 105.482 11.7534 107.374 12.6499 108.968 13.9447 110.363 15.5384L106.478 20.0206C105.582 18.8254 104.486 17.9289 103.191 17.3313 101.896 16.7337 100.502 16.3353 99.0076 16.3353 96.8163 16.3353 94.6249 17.1321 92.9317 18.6262 92.0352 19.423 91.4376 20.4191 90.9396 21.5147 90.5411 22.6104 90.3419 23.8056 90.3419 24.9013 90.2423 26.0966 90.4415 27.1922 90.84 28.2879 91.2384 29.3835 91.836 30.3796 92.7324 31.1764 94.3261 32.4713 96.4178 33.2681 98.5096 33.2681ZM115.044 38.7464 115.044 10.6578 121.319 10.6578 121.319 33.1685 133.371 33.1685 133.371 38.7464 115.044 38.7464ZM160.862 34.8618C157.974 37.5512 154.288 39.0452 150.304 39.0452 146.32 39.0452 142.635 37.5512 139.746 34.8618 138.352 33.567 137.256 31.9733 136.559 30.1804 135.861 28.3875 135.463 26.495 135.463 24.6025 135.363 22.71 135.762 20.7179 136.459 19.0246 137.156 17.2317 138.252 15.638 139.646 14.3432 142.535 11.6538 146.22 10.1597 150.205 10.1597 154.189 10.1597 157.874 11.6538 160.763 14.3432 162.157 15.638 163.253 17.2317 163.95 19.0246 164.647 20.8175 165.046 22.71 164.946 24.6025 165.046 26.495 164.647 28.4871 163.95 30.1804 163.353 31.9733 162.257 33.567 160.862 34.8618ZM158.671 24.6025C158.671 22.212 157.775 19.921 156.181 18.1281 155.384 17.3313 154.488 16.6341 153.492 16.136 152.496 15.638 151.3 15.4388 150.205 15.4388 149.109 15.4388 148.013 15.638 146.918 16.136 145.922 16.6341 144.926 17.2317 144.228 18.1281 142.635 19.921 141.738 22.212 141.738 24.6025 141.738 26.993 142.635 29.2839 144.228 31.0768 145.025 31.8737 145.922 32.5709 146.918 33.0689 147.914 33.567 149.109 33.7662 150.205 33.7662 151.3 33.7662 152.396 33.567 153.492 33.0689 154.488 32.5709 155.484 31.9733 156.181 31.0768 156.978 30.1804 157.675 29.1843 158.073 28.0887 158.571 26.8934 158.771 25.7977 158.671 24.6025ZM177.895 31.5749C178.393 32.2721 179.09 32.7701 179.787 33.0689 180.485 33.3677 181.381 33.567 182.178 33.567 182.975 33.567 183.772 33.4674 184.469 33.0689 185.166 32.7701 185.863 32.1725 186.262 31.5749 187.357 29.9812 187.855 28.1883 187.756 26.2958L187.756 10.7574 194.031 10.7574 194.031 26.495C194.031 30.5788 192.935 33.6666 190.644 35.8579 189.449 36.9535 188.154 37.85 186.66 38.348 185.166 38.9456 183.572 39.1448 181.979 39.1448 180.385 39.1448 178.791 38.9456 177.297 38.348 175.803 37.7504 174.409 36.9535 173.313 35.8579 171.022 33.6666 169.926 30.5788 169.926 26.495L169.926 10.7574 176.202 10.7574 176.202 26.2958C176.202 28.1883 176.799 30.0808 177.895 31.5749ZM222.219 14.3432C224.909 16.8333 226.303 20.2199 226.303 24.6025 226.303 28.9851 225.008 32.4713 222.418 35.061 219.829 37.6508 215.745 38.846 210.466 38.846L200.704 38.846 200.704 10.6578 210.665 10.6578C215.645 10.6578 219.53 11.853 222.219 14.3432ZM217.637 31.0768C219.131 29.6824 219.928 27.491 219.928 24.7021 219.928 21.9131 219.131 19.8214 217.637 18.3274 216.143 16.8333 213.753 16.0364 210.565 16.0364L207.079 16.0364 207.079 33.1685 211.063 33.1685C213.454 33.3677 215.844 32.6705 217.637 31.0768ZM262.061 10.6578 268.336 10.6578 268.336 38.846 262.061 38.846 248.615 21.2159 248.615 38.846 242.339 38.846 242.339 10.6578 248.216 10.6578 262.061 28.7859 262.061 10.6578ZM295.329 38.7464 292.64 32.6705 280.787 32.6705 278.098 38.7464 271.325 38.7464 283.476 10.5582 289.552 10.5582 301.804 38.7464 295.329 38.7464ZM286.863 19.0246 283.377 27.1922 290.349 27.1922 286.863 19.0246ZM315.25 16.136 315.25 38.846 308.975 38.846 308.975 16.136 301.007 16.136 301.007 10.7574 323.319 10.7574 323.319 16.136 315.25 16.136ZM327.701 10.6578 333.976 10.6578 333.976 38.846 327.701 38.846 327.701 10.6578ZM351.407 28.5867 358.579 10.6578 365.452 10.6578 354.196 38.846 348.917 38.846 337.662 10.6578 344.534 10.6578 351.407 28.5867ZM388.958 10.6578 388.958 16.2356 374.914 16.2356 374.914 22.0128 387.564 22.0128 387.564 27.3914 374.914 27.3914 374.914 33.2681 389.456 33.2681 389.456 38.846 368.738 38.846 368.738 10.7574 388.958 10.6578C388.958 10.7574 388.958 10.6578 388.958 10.6578ZM91.2384 62.7513C92.0352 62.7513 92.8321 62.5521 93.6289 62.2533 94.3261 61.8548 95.0234 61.3568 95.5214 60.6596L97.8123 63.0501C97.0155 63.9465 96.119 64.7434 94.9238 65.2414 93.8281 65.7394 92.6328 66.0383 91.4376 66.0383 90.3419 66.0383 89.2463 65.9386 88.2502 65.5402 87.2542 65.1418 86.2581 64.5442 85.4613 63.7473 84.6644 63.0501 84.0668 62.1537 83.6684 61.1576 83.27 60.1615 83.0707 59.0659 83.0707 57.9702 83.0707 56.8746 83.27 55.7789 83.6684 54.7829 84.0668 53.7868 84.6644 52.8904 85.4613 52.0935 86.2581 51.2967 87.1546 50.6991 88.1506 50.3006 89.1467 49.9022 90.2423 49.703 91.338 49.703 92.5332 49.703 93.8281 49.9022 94.9238 50.4002 96.0194 50.8983 97.0155 51.6951 97.9119 52.5915L95.7206 55.0817C95.2226 54.3844 94.6249 53.8864 93.9277 53.488 93.2305 53.0896 92.4336 52.99 91.5372 52.99 90.2423 52.99 89.0471 53.488 88.1506 54.2848 87.6526 54.6833 87.2542 55.2809 87.055 55.8785 86.8557 56.4762 86.6565 57.1734 86.7561 57.771 86.7561 58.3687 86.8557 59.0659 87.055 59.6635 87.2542 60.2612 87.6526 60.8588 88.051 61.2572 88.4494 61.6556 88.9475 62.054 89.5451 62.2533 90.1427 62.4525 90.6407 62.7513 91.2384 62.7513ZM113.45 63.6477C111.857 65.1418 109.765 66.0383 107.574 66.0383 106.478 66.0383 105.382 65.839 104.386 65.4406 103.39 65.0422 102.494 64.4446 101.697 63.6477 100.203 62.1537 99.3064 60.0619 99.3064 57.8706 99.3064 55.6793 100.203 53.5876 101.697 52.0935 103.291 50.5994 105.382 49.703 107.574 49.703 108.669 49.703 109.765 49.9022 110.761 50.3006 111.757 50.6991 112.653 51.2967 113.45 52.0935 114.944 53.5876 115.841 55.6793 115.841 57.8706 115.841 60.0619 114.944 62.1537 113.45 63.6477ZM112.355 57.8706C112.355 56.5758 111.956 55.2809 111.06 54.2848 110.661 53.7868 110.163 53.488 109.566 53.1892 108.968 52.8904 108.37 52.7908 107.773 52.7908 107.175 52.7908 106.478 52.8904 105.98 53.1892 105.382 53.488 104.884 53.8864 104.486 54.3844 103.988 54.8825 103.689 55.3805 103.49 56.0777 103.291 56.6754 103.191 57.3726 103.191 57.9702 103.191 59.2651 103.689 60.56 104.486 61.556 104.884 62.054 105.382 62.3529 105.98 62.6517 106.578 62.9505 107.175 63.0501 107.773 63.0501 108.37 63.0501 109.068 62.9505 109.566 62.6517 110.163 62.3529 110.661 61.9544 111.06 61.4564 111.857 60.56 112.355 59.2651 112.355 57.8706ZM132.973 55.8785 128.69 64.5442 126.598 64.5442 122.315 55.8785 122.315 65.839 118.829 65.839 118.829 50.1014 123.61 50.1014 127.694 58.7671 131.778 50.1014 136.559 50.1014 136.559 65.9386 133.073 65.9386 132.973 55.8785ZM151.3 51.5955C151.898 52.0935 152.396 52.7908 152.695 53.5876 152.994 54.3844 153.093 55.1813 152.994 55.9781 152.994 57.9702 152.396 59.3647 151.3 60.2612 150.205 61.2572 148.412 61.556 146.121 61.556L144.029 61.556 144.029 65.9386 140.443 65.9386 140.443 50.1014 146.021 50.1014C148.412 50.1014 150.105 50.5994 151.3 51.5955ZM148.711 57.771C149.209 57.1734 149.408 56.4762 149.408 55.6793 149.408 55.2809 149.408 54.9821 149.209 54.5837 149.009 54.2848 148.81 53.986 148.511 53.7868 147.715 53.3884 146.818 53.1892 145.922 53.1892L143.93 53.1892 143.93 58.4683 146.32 58.4683C146.718 58.4683 147.217 58.4683 147.615 58.3687 148.013 58.1694 148.412 57.9702 148.711 57.771ZM159.966 61.7552C160.265 62.1537 160.564 62.3529 161.062 62.5521 161.46 62.7513 161.958 62.8509 162.356 62.8509 162.855 62.8509 163.253 62.7513 163.651 62.5521 164.05 62.3529 164.448 62.054 164.747 61.7552 165.345 60.8588 165.643 59.7631 165.643 58.7671L165.643 50.0018 169.13 50.0018 169.13 58.7671C169.229 59.7631 169.03 60.6596 168.731 61.6556 168.432 62.5521 167.934 63.4485 167.237 64.1458 165.942 65.341 164.149 65.9386 162.356 65.9386 160.564 65.9386 158.87 65.2414 157.575 64.0462 156.878 63.3489 156.38 62.4525 156.081 61.556 155.783 60.6596 155.583 59.6635 155.683 58.6675L155.683 49.9022 159.169 49.9022 159.169 58.6675C158.97 59.7631 159.269 60.8588 159.966 61.7552ZM179.389 53.1892 179.389 65.839 175.903 65.839 175.903 53.1892 171.421 53.1892 171.421 50.201 183.971 50.201 183.971 53.1892 179.389 53.1892ZM186.461 50.1014 189.947 50.1014 189.947 65.9386 186.461 65.9386 186.461 50.1014ZM204.888 50.1014 208.374 50.1014 208.374 65.9386 204.888 65.9386 197.418 56.0777 197.418 65.9386 193.931 65.9386 193.931 50.1014 197.218 50.1014 204.988 60.2612 204.888 50.1014C204.988 50.1014 204.888 50.1014 204.888 50.1014ZM222.618 57.8706 226.104 57.8706 226.104 63.4485C225.307 64.345 224.211 65.0422 223.116 65.4406 222.02 65.9386 220.725 66.1379 219.53 66.0383 217.339 66.0383 215.247 65.2414 213.653 63.7473 212.856 63.0501 212.259 62.1537 211.86 61.1576 211.462 60.1615 211.263 59.0659 211.263 57.9702 211.263 56.8746 211.462 55.7789 211.86 54.7829 212.259 53.7868 212.856 52.8904 213.653 52.0935 214.45 51.2967 215.346 50.6991 216.343 50.3006 217.339 49.9022 218.434 49.703 219.53 49.703 221.721 49.703 223.813 50.4998 225.407 51.9939L223.614 54.6833C223.116 54.0856 222.418 53.6872 221.622 53.488 221.024 53.2888 220.327 53.0896 219.729 53.0896 218.434 53.0896 217.239 53.5876 216.343 54.3844 215.844 54.8825 215.446 55.3805 215.247 56.0777 215.048 56.775 214.848 57.3726 214.948 58.0698 214.948 59.3647 215.346 60.6596 216.243 61.6556 216.641 62.054 217.139 62.4525 217.637 62.6517 218.135 62.8509 218.733 62.9505 219.331 62.9505 220.426 63.0501 221.422 62.7513 222.319 62.2533L222.319 57.771 222.618 57.771ZM246.025 50.1014 246.025 53.1892 238.754 53.1892 238.754 56.5758 245.626 56.5758 245.626 59.7631 238.754 59.7631 238.754 65.9386 235.268 65.9386 235.268 50.1014 246.025 50.1014ZM262.36 63.6477C260.766 65.1418 258.675 66.0383 256.483 66.0383 255.388 66.0383 254.292 65.839 253.296 65.4406 252.3 65.0422 251.404 64.4446 250.607 63.6477 249.113 62.1537 248.216 60.0619 248.216 57.8706 248.216 55.6793 249.113 53.5876 250.607 52.0935 252.2 50.5994 254.292 49.703 256.483 49.703 257.579 49.703 258.675 49.9022 259.671 50.3006 260.667 50.6991 261.563 51.2967 262.36 52.0935 263.854 53.5876 264.751 55.6793 264.751 57.8706 264.751 60.0619 263.854 62.1537 262.36 63.6477ZM261.065 57.8706C261.065 56.5758 260.667 55.2809 259.77 54.2848 259.372 53.7868 258.874 53.488 258.276 53.1892 257.679 52.8904 257.081 52.7908 256.483 52.7908 255.886 52.7908 255.189 52.8904 254.691 53.1892 254.093 53.488 253.595 53.8864 253.196 54.3844 252.698 54.8825 252.4 55.3805 252.2 56.0777 252.001 56.775 251.902 57.3726 251.902 57.9702 251.902 59.2651 252.4 60.56 253.196 61.556 253.595 62.054 254.093 62.3529 254.691 62.6517 255.288 62.9505 255.886 63.0501 256.483 63.0501 257.081 63.0501 257.778 62.9505 258.276 62.6517 258.874 62.3529 259.372 61.9544 259.77 61.4564 260.268 60.9584 260.567 60.4604 260.766 59.7631 260.966 59.0659 261.165 58.5679 261.065 57.8706ZM271.922 61.7552C272.221 62.1537 272.52 62.3529 273.018 62.5521 273.416 62.7513 273.914 62.8509 274.313 62.8509 274.711 62.8509 275.209 62.7513 275.608 62.5521 276.006 62.3529 276.404 62.054 276.703 61.7552 277.301 60.8588 277.6 59.7631 277.6 58.7671L277.6 50.0018 281.086 50.0018 281.086 58.7671C281.185 59.7631 280.986 60.6596 280.687 61.6556 280.389 62.5521 279.891 63.4485 279.193 64.1458 277.899 65.341 276.106 65.9386 274.313 65.9386 272.52 65.9386 270.827 65.2414 269.532 64.0462 268.834 63.3489 268.336 62.4525 268.038 61.556 267.739 60.6596 267.54 59.6635 267.639 58.6675L267.639 49.9022 271.125 49.9022 271.125 58.6675C270.926 59.7631 271.225 60.9584 271.922 61.7552ZM295.728 50.1014 299.214 50.1014 299.214 65.9386 295.728 65.9386 288.257 56.0777 288.257 65.9386 284.771 65.9386 284.771 50.1014 288.058 50.1014 295.827 60.2612 295.728 50.1014C295.827 50.1014 295.728 50.1014 295.728 50.1014ZM315.151 52.1931C315.948 52.8904 316.545 53.8864 316.944 54.8825 317.342 55.8785 317.541 56.9742 317.442 57.9702 317.541 59.0659 317.342 60.0619 316.944 61.058 316.545 62.054 315.948 62.9505 315.25 63.7473 313.856 65.1418 311.565 65.9386 308.477 65.9386L303.099 65.9386 303.099 50.1014 308.677 50.1014C311.565 50.1014 313.756 50.7987 315.151 52.1931ZM312.561 61.6556C312.96 61.1576 313.358 60.6596 313.557 60.0619 313.756 59.4643 313.856 58.7671 313.856 58.1694 313.856 57.4722 313.756 56.8746 313.557 56.2769 313.358 55.6793 312.96 55.0817 312.561 54.5837 311.964 54.0856 311.366 53.7868 310.669 53.5876 309.971 53.3884 309.274 53.2888 308.577 53.3884L306.585 53.3884 306.585 62.9505 308.876 62.9505C310.171 62.8509 311.565 62.4525 312.561 61.6556ZM331.287 65.839 329.892 62.4525 323.219 62.4525 321.824 65.839 318.039 65.839 324.912 50.0018 328.299 50.0018 335.172 65.839 331.287 65.839ZM326.506 54.7829 324.514 59.3647 328.498 59.3647 326.506 54.7829ZM342.443 53.1892 342.443 65.839 338.957 65.839 338.957 53.1892 334.375 53.1892 334.375 50.201 346.925 50.201 346.925 53.1892 342.443 53.1892ZM349.415 50.1014 352.901 50.1014 352.901 65.9386 349.415 65.9386 349.415 50.1014ZM370.133 63.6477C368.539 65.1418 366.448 66.0383 364.256 66.0383 363.161 66.0383 362.065 65.839 361.069 65.4406 360.073 65.0422 359.176 64.4446 358.38 63.6477 356.885 62.1537 355.989 60.0619 355.989 57.8706 355.989 55.6793 356.885 53.5876 358.38 52.0935 359.973 50.5994 362.065 49.703 364.256 49.703 365.352 49.703 366.448 49.9022 367.444 50.3006 368.44 50.6991 369.336 51.2967 370.133 52.0935 371.627 53.5876 372.523 55.6793 372.523 57.8706 372.523 60.0619 371.627 62.1537 370.133 63.6477ZM369.037 57.8706C369.037 56.5758 368.539 55.2809 367.742 54.2848 367.344 53.7868 366.846 53.488 366.248 53.1892 365.651 52.8904 365.053 52.7908 364.455 52.7908 363.858 52.7908 363.161 52.8904 362.663 53.1892 362.065 53.488 361.567 53.8864 361.168 54.3844 360.67 54.8825 360.372 55.3805 360.172 56.0777 359.973 56.775 359.874 57.3726 359.874 57.9702 359.874 59.2651 360.372 60.56 361.168 61.556 361.567 62.054 362.065 62.3529 362.663 62.6517 363.26 62.9505 363.858 63.0501 364.455 63.0501 365.053 63.0501 365.75 62.9505 366.248 62.6517 366.846 62.3529 367.344 61.9544 367.742 61.4564 368.539 60.56 369.037 59.2651 369.037 57.8706ZM386.568 50.1014 390.054 50.1014 390.054 65.9386 386.568 65.9386 379.097 56.0777 379.097 65.9386 375.512 65.9386 375.512 50.1014 378.799 50.1014 386.568 60.2612C386.667 60.2612 386.568 50.1014 386.568 50.1014Z" fill="#000000" fill-rule="nonzero" fill-opacity="1" transform="matrix(1 0 0 1.00251 561.288 94.9287)"/><path d="M16.136 47.1133 7.47039 47.1133 7.47039 67.3331 27.6902 67.3331 27.6902 58.6675 16.136 58.6675 16.136 47.1133ZM59.5639 47.2129 59.5639 58.6675 48.0097 58.6675 48.0097 67.3331 68.2296 67.3331 68.2296 47.1133 59.5639 47.2129ZM7.47039 26.993 16.2356 26.993 16.136 26.8934 16.136 15.4388 27.6902 15.4388 27.6902 6.77315 7.47039 6.77315 7.47039 26.993ZM48.0097 6.77315 48.0097 15.4388 59.5639 15.4388 59.5639 26.993 68.2296 26.993 68.2296 6.77315 48.0097 6.77315Z" fill="#0086FF" fill-rule="nonzero" fill-opacity="1" transform="matrix(1 0 0 1.00251 561.288 94.9287)"/><path d="M46.8144 26.993 35.2602 15.4388 47.9101 15.4388 47.9101 6.77315 27.6902 6.77315 27.6902 15.4388 39.2445 26.993 46.8144 26.993ZM36.4555 47.1133 28.8855 47.1133 38.4476 56.6754 40.3401 58.6675 27.6902 58.6675 27.6902 67.3331 48.0097 67.3331 48.0097 58.5679 42.2326 52.8904 36.4555 47.1133ZM59.5639 26.993 59.5639 39.5433 57.5718 37.5512 48.0097 27.9891 48.0097 35.6587 53.6872 41.3362 59.4643 47.1133 68.2296 47.1133 68.2296 26.993 59.5639 26.993ZM27.6902 38.4476 16.2356 26.993 7.47039 26.993 7.47039 47.1133 16.136 47.1133 16.136 34.563 27.6902 46.1172 27.6902 38.4476Z" fill="#93EAFF" fill-rule="nonzero" fill-opacity="1" transform="matrix(1 0 0 1.00251 561.288 94.9287)"/></g></g></g></g></g></svg>