<svg width="77" height="77" xmlns="http://www.w3.org/2000/svg" xmlns:xlink="http://www.w3.org/1999/xlink" xml:space="preserve" overflow="hidden"><g transform="translate(-92 -276)"><g><g><g><g><path d="M131 324.5C125.775 324.5 121.5 320.225 121.5 315 121.5 309.775 125.775 305.5 131 305.5 136.225 305.5 140.5 309.775 140.5 315 140.5 320.225 136.225 324.5 131 324.5ZM152.375 309.062C151.9 307.321 151.188 305.658 150.317 304.154L152.296 298.217 147.783 293.704 141.846 295.683C140.262 294.812 138.6 294.1 136.858 293.625L134.167 288.083 127.833 288.083 125.062 293.625C123.321 294.1 121.658 294.812 120.154 295.683L114.217 293.704 109.704 298.217 111.683 304.154C110.812 305.737 110.1 307.4 109.625 309.142L104.083 311.833 104.083 318.167 109.625 320.938C110.1 322.679 110.812 324.342 111.683 325.846L109.704 331.783 114.217 336.296 120.154 334.317C121.738 335.188 123.4 335.9 125.142 336.375L127.912 341.917 134.246 341.917 137.017 336.375C138.758 335.9 140.421 335.188 141.925 334.317L147.863 336.296 152.375 331.783 150.396 325.846C151.267 324.263 151.979 322.6 152.454 320.858L157.996 318.087 157.996 311.754 152.375 309.062Z" fill="#4337CA" fill-rule="nonzero" fill-opacity="1"/></g></g></g></g></g></svg>