<svg width="76" height="77" xmlns="http://www.w3.org/2000/svg" xmlns:xlink="http://www.w3.org/1999/xlink" xml:space="preserve" overflow="hidden"><g transform="translate(-100 -576)"><g><g><g><g><path d="M166.167 600.918 159.834 588.251C159.297 587.178 158.2 586.5 157 586.5L141.167 586.5C139.967 586.5 138.871 587.178 138.333 588.251L132.876 599.167 119 599.167C117.8 599.167 116.704 599.844 116.166 600.918L109.832 613.584C109.386 614.477 109.386 615.527 109.832 616.419L116.166 629.085C116.704 630.156 117.8 630.833 119 630.833L132.876 630.833 138.336 641.749C138.871 642.823 139.967 643.501 141.167 643.5L157 643.5C158.2 643.5 159.296 642.822 159.834 641.749L166.167 629.082C166.614 628.19 166.614 627.14 166.167 626.248L160.54 615 166.164 603.749C166.611 602.858 166.612 601.809 166.167 600.918ZM143.124 592.833 155.043 592.833 159.793 602.333 155.043 611.833 143.124 611.833 138.374 602.333 143.124 592.833ZM116.207 615 120.957 605.5 132.876 605.5 137.626 615 132.876 624.5 120.957 624.5 116.207 615ZM155.043 637.167 143.124 637.167 138.374 627.667 143.124 618.167 155.043 618.167 159.793 627.667 155.043 637.167Z" fill="#4337CA" fill-rule="nonzero" fill-opacity="1"/></g></g></g></g></g></svg>