<svg width="76" height="76" xmlns="http://www.w3.org/2000/svg" xmlns:xlink="http://www.w3.org/1999/xlink" xml:space="preserve" overflow="hidden"><g transform="translate(-628 -348)"><g><path d="M695.786 367.272 667.286 354.606C666.466 354.241 665.531 354.241 664.711 354.606L636.211 367.272C636.148 367.301 636.104 367.348 636.04 367.383 635.951 367.427 635.857 367.456 635.774 367.51 635.705 367.557 635.651 367.617 635.584 367.668 635.353 367.84 635.15 368.048 634.982 368.283 634.919 368.371 634.853 368.45 634.796 368.539 634.701 368.706 634.621 368.881 634.555 369.061 634.526 369.147 634.482 369.226 634.457 369.312 634.377 369.59 634.336 369.877 634.333 370.167L634.333 401.833C634.333 403.087 635.068 404.218 636.214 404.728L664.714 417.394C665.126 417.578 665.563 417.667 666 417.667 666.441 417.655 666.875 417.552 667.273 417.363L667.286 417.394 695.786 404.728C696.93 404.22 697.668 403.085 697.667 401.833L697.667 370.167C697.668 368.915 696.93 367.78 695.786 367.272ZM666 360.967 686.704 370.167 666 379.366 661.858 377.526 645.299 370.167 666 360.967ZM669.167 409.626 669.167 384.892 691.333 375.04 691.333 399.778 669.167 409.626Z" fill="#12AA52" fill-rule="nonzero" fill-opacity="1"/></g></g></svg>