<svg width="76" height="76" xmlns="http://www.w3.org/2000/svg" xmlns:xlink="http://www.w3.org/1999/xlink" xml:space="preserve" overflow="hidden"><g transform="translate(-925 -72)"><g><g><g><g><path d="M990.062 87.625C987.474 87.625 985.375 89.7237 985.375 92.3125L985.375 106.375 982.25 106.375 982.25 86.0625C982.25 83.4737 980.151 81.375 977.562 81.375 974.974 81.375 972.875 83.4737 972.875 86.0625L972.875 106.375 969.75 106.375 969.75 82.9375C969.75 80.3487 967.651 78.25 965.062 78.25 962.474 78.25 960.375 80.3487 960.375 82.9375L960.375 106.375 957.25 106.375 957.25 89.1875C957.25 86.5987 955.151 84.5 952.562 84.5 949.974 84.5 947.875 86.5987 947.875 89.1875L947.875 122.969 940.938 111.719C939.574 109.51 936.678 108.824 934.469 110.188 932.26 111.551 931.574 114.447 932.938 116.656L943.281 133.344C946.127 137.946 951.152 140.747 956.562 140.75L979.125 140.75C987.754 140.75 994.75 133.754 994.75 125.125L994.75 92.3125C994.75 89.7237 992.651 87.625 990.062 87.625Z" fill="#4337CA" fill-rule="nonzero" fill-opacity="1"/></g></g></g></g></g></svg>