<svg width="76" height="77" xmlns="http://www.w3.org/2000/svg" xmlns:xlink="http://www.w3.org/1999/xlink" xml:space="preserve" overflow="hidden"><g transform="translate(-392 -400)"><g><g><g><g><path d="M435.51 414.395C432.85 411.228 430.538 408.062 430.095 407.365L430 407.365C429.557 408.03 427.245 411.228 424.585 414.395 401.785 443.497 428.195 463.13 428.195 463.13L428.417 463.288C428.607 466.297 429.113 470.667 429.113 470.667L431.077 470.667C431.077 470.667 431.552 466.328 431.742 463.288L431.963 463.098C431.963 463.098 458.31 443.497 435.51 414.395ZM430 462.687C429.445 462.231 428.936 461.722 428.48 461.167L430 429.5 431.425 461.167C430.998 461.716 430.521 462.225 430 462.687Z" fill="#16AA52" fill-rule="nonzero" fill-opacity="1"/></g></g></g></g></g></svg>