<svg width="78" height="76" xmlns="http://www.w3.org/2000/svg" xmlns:xlink="http://www.w3.org/1999/xlink" xml:space="preserve" overflow="hidden"><g transform="translate(-290 -136)"><g><g><g><g><path d="M24.8667 59.1011C12.8647 59.1011 3.125 49.3858 3.125 37.3804 3.125 25.375 12.8647 15.625 24.8667 15.625L50.1369 15.625C62.1422 15.625 71.875 25.375 71.875 37.3804 71.875 49.3858 62.1422 59.1011 50.1369 59.1011L24.8667 59.1011ZM49.5747 51.433C57.3506 51.433 63.6482 45.1527 63.6482 37.3804 63.6482 29.6081 57.3506 23.2932 49.5747 23.2932L25.4253 23.2932C17.653 23.2932 11.3517 29.6081 11.3517 37.3804 11.3517 45.1527 17.653 51.433 25.4253 51.433L49.5747 51.433Z" fill="#FF0000" fill-rule="evenodd" fill-opacity="1" transform="matrix(1.01333 0 0 1 291 137)"/></g></g></g></g></g></svg>