<svg width="102" height="76" xmlns="http://www.w3.org/2000/svg" xmlns:xlink="http://www.w3.org/1999/xlink" xml:space="preserve" overflow="hidden"><g transform="translate(-162 0)"><g><g><g><g><path d="M57.5116 0.0153186C68.5271 0.0114889 79.543-0.0220204 90.5585 0.0244139 97.1072 0.0512214 98.9536 2.23938 97.5418 8.70668 93.4078 27.6471 89.1808 46.5684 84.8969 65.4758 83.5421 71.452 80.4296 73.9001 74.1428 73.9187 52.1113 73.9843 30.0799 73.9915 8.04894 73.9159 0.847786 73.8905-1.04645 71.4515 0.505034 64.6271 4.71285 46.0928 8.94891 27.565 13.2132 9.04369 14.8384 1.98567 17.2808 0.0478705 24.4637 0.0272862 35.4797-0.00382964 46.4956 0.0191482 57.5116 0.0153186Z" fill="#E0EAF5" fill-rule="evenodd" fill-opacity="1" transform="matrix(1 0 0 1.00689 164.046 0.760469)"/><path d="M40.8646 71.7162C29.8477 71.7124 18.8303 71.7631 7.8139 71.6908 2.22741 71.6545 1.2116 70.3361 2.46916 64.8722 6.7325 46.3415 11.1332 27.8419 15.3018 9.29022 16.4196 4.31457 18.8308 2.1154 24.1617 2.1647 46.1936 2.36911 68.2293 2.23029 90.2627 2.25278 95.7884 2.25805 96.7161 3.43997 95.4758 9.04417 91.4484 27.2383 87.3957 45.4272 83.2717 63.5998 81.7283 70.4007 79.9504 71.6985 72.7952 71.7143 62.1517 71.7368 51.5077 71.72 40.8646 71.7162Z" fill="#2671BE" fill-rule="evenodd" fill-opacity="1" transform="matrix(1 0 0 1.00689 164.046 0.760469)"/><path d="M50.2391 35.4007C49.5005 34.5342 48.6895 33.5366 47.8307 32.583 42.9609 27.1737 38.1341 21.7241 33.1776 16.3956 30.9095 13.9571 30.1866 11.589 32.9105 9.18204 35.6022 6.80287 38.2471 7.0135 40.7162 9.75074 47.5928 17.3712 54.4613 25.0004 61.4518 32.516 64.0617 35.3232 63.4538 37.2317 60.5791 39.3117 49.5455 47.298 38.574 55.3708 27.6146 63.459 25.1512 65.2776 22.8026 65.7329 20.8126 63.0469 18.6173 60.0842 20.6485 58.3216 22.9257 56.6633 31.0699 50.7312 39.1983 44.7771 47.2917 38.776 48.4191 37.9402 50.0376 37.4529 50.2391 35.4007Z" fill="#FDFDFE" fill-rule="evenodd" fill-opacity="1" transform="matrix(1 0 0 1.00689 164.046 0.760469)"/><path d="M53.7274 64.0598C50.7614 64.0598 47.791 64.1618 44.8317 64.0273 42.4707 63.9205 41.0499 62.6012 41.0796 60.1143 41.1083 57.7629 42.2936 55.9951 44.6521 55.9314 51.1348 55.7576 57.627 55.795 64.112 55.9218 66.1728 55.962 67.6941 57.3048 67.6817 59.4523 67.6668 61.9157 66.3705 63.8243 63.7324 63.9832 60.4082 64.1843 57.0635 64.033 53.7279 64.033Z" fill="#FCFDFD" fill-rule="evenodd" fill-opacity="1" transform="matrix(1 0 0 1.00689 164.046 0.760469)"/></g></g></g></g></g></svg>