<svg width="25" height="25" xmlns="http://www.w3.org/2000/svg" xmlns:xlink="http://www.w3.org/1999/xlink" xml:space="preserve" overflow="hidden"><g transform="translate(-813 -93)"><g><g><g><g><path d="M835.95 102.721 835.925 102.553 835.899 102.559C835.379 100.129 832.988 98.5798 830.557 99.0995 828.127 99.6192 826.578 102.011 827.098 104.441 827.542 106.517 829.377 108.001 831.5 108 831.723 108 831.937 107.966 832.15 107.935 832.081 108.167 832.01 108.403 831.896 108.615 831.782 108.923 831.604 109.19 831.427 109.459 831.279 109.75 831.018 109.947 830.826 110.196 830.625 110.438 830.351 110.599 830.134 110.8 829.921 111.01 829.642 111.115 829.42 111.263 829.188 111.396 828.986 111.543 828.77 111.613L828.231 111.835 827.757 112.032 828.241 113.971 828.838 113.827C829.029 113.779 829.262 113.723 829.527 113.656 829.798 113.606 830.087 113.469 830.409 113.344 830.726 113.201 831.095 113.106 831.437 112.877 831.781 112.659 832.178 112.477 832.528 112.185 832.867 111.884 833.276 111.623 833.578 111.241 833.908 110.883 834.234 110.507 834.487 110.079 834.78 109.671 834.979 109.223 835.189 108.78 835.379 108.337 835.532 107.884 835.657 107.444 835.894 106.562 836 105.724 836.041 105.007 836.075 104.289 836.055 103.692 836.013 103.26 835.999 103.08 835.978 102.9 835.95 102.721ZM824.95 102.721 824.925 102.553 824.899 102.559C824.379 100.129 821.988 98.5798 819.557 99.0995 817.127 99.6192 815.578 102.011 816.098 104.441 816.542 106.517 818.377 108.001 820.5 108 820.723 108 820.937 107.966 821.15 107.935 821.081 108.167 821.01 108.403 820.896 108.615 820.782 108.923 820.604 109.19 820.427 109.459 820.279 109.75 820.018 109.947 819.826 110.196 819.625 110.438 819.351 110.599 819.134 110.8 818.921 111.01 818.642 111.115 818.42 111.263 818.188 111.396 817.986 111.543 817.77 111.613L817.231 111.835C816.93 111.958 816.758 112.03 816.758 112.03L817.242 113.969 817.839 113.825C818.03 113.777 818.263 113.721 818.528 113.654 818.799 113.604 819.088 113.467 819.41 113.342 819.727 113.199 820.096 113.104 820.438 112.875 820.782 112.657 821.179 112.475 821.529 112.183 821.868 111.882 822.277 111.621 822.579 111.239 822.909 110.881 823.235 110.505 823.488 110.077 823.781 109.669 823.98 109.221 824.19 108.778 824.38 108.335 824.533 107.882 824.658 107.442 824.895 106.56 825.001 105.722 825.042 105.005 825.076 104.287 825.056 103.69 825.014 103.258 824.999 103.078 824.978 102.899 824.95 102.721Z" fill="#000000" fill-rule="nonzero" fill-opacity="1"/></g></g></g></g></g></svg>