<svg width="26" height="25" xmlns="http://www.w3.org/2000/svg" xmlns:xlink="http://www.w3.org/1999/xlink" xml:space="preserve" overflow="hidden"><g transform="translate(-738 -100)"><g><g><g><g><path d="M745.5 111C745.277 111 745.063 111.034 744.85 111.065 744.919 110.833 744.99 110.597 745.104 110.385 745.218 110.077 745.396 109.81 745.573 109.541 745.721 109.25 745.982 109.053 746.174 108.804 746.375 108.562 746.649 108.401 746.866 108.2 747.079 107.99 747.358 107.885 747.58 107.737 747.812 107.604 748.014 107.457 748.23 107.387L748.769 107.165 749.243 106.968 748.758 105.03 748.161 105.174C747.97 105.222 747.737 105.278 747.472 105.345 747.201 105.395 746.912 105.532 746.59 105.657 746.272 105.799 745.904 105.895 745.562 106.123 745.218 106.341 744.821 106.523 744.471 106.815 744.132 107.116 743.723 107.377 743.421 107.76 743.091 108.118 742.765 108.494 742.512 108.922 742.219 109.33 742.02 109.778 741.81 110.221 741.62 110.664 741.467 111.117 741.342 111.557 741.105 112.439 740.999 113.277 740.958 113.994 740.924 114.712 740.944 115.309 740.986 115.741 741.001 115.945 741.029 116.143 741.049 116.28L741.074 116.448 741.1 116.442C741.62 118.872 744.012 120.421 746.442 119.9 748.872 119.38 750.421 116.988 749.901 114.558 749.456 112.483 747.622 111 745.5 111ZM756.5 111C756.277 111 756.063 111.034 755.85 111.065 755.919 110.833 755.99 110.597 756.104 110.385 756.218 110.077 756.396 109.81 756.573 109.541 756.721 109.25 756.982 109.053 757.174 108.804 757.375 108.562 757.649 108.401 757.866 108.2 758.079 107.99 758.358 107.885 758.58 107.737 758.812 107.604 759.014 107.457 759.23 107.387L759.769 107.165 760.243 106.968 759.758 105.03 759.161 105.174C758.97 105.222 758.737 105.278 758.472 105.345 758.201 105.395 757.912 105.532 757.59 105.657 757.273 105.8 756.904 105.895 756.562 106.124 756.218 106.342 755.821 106.524 755.471 106.816 755.132 107.117 754.723 107.378 754.421 107.76 754.091 108.118 753.765 108.494 753.512 108.922 753.219 109.33 753.02 109.778 752.81 110.221 752.62 110.664 752.467 111.117 752.342 111.557 752.105 112.439 751.999 113.277 751.958 113.994 751.924 114.712 751.944 115.309 751.986 115.741 752.001 115.945 752.029 116.143 752.049 116.28L752.074 116.448 752.1 116.442C752.62 118.872 755.012 120.421 757.442 119.9 759.872 119.38 761.421 116.988 760.901 114.558 760.456 112.483 758.622 111 756.5 111Z" fill="#000000" fill-rule="nonzero" fill-opacity="1"/></g></g></g></g></g></svg>