<svg width="78" height="77" xmlns="http://www.w3.org/2000/svg" xmlns:xlink="http://www.w3.org/1999/xlink" xml:space="preserve" overflow="hidden"><g transform="translate(-1058 -40)"><g><g><g><g><path d="M1097 85.3333 1116 85.3333 1116 91.6667 1097 91.6667ZM1078.93 71.7388 1086.19 79 1078.93 86.2612 1083.41 90.7388 1095.14 79 1083.41 67.2612Z" fill="#4335C6" fill-rule="nonzero" fill-opacity="1"/><path d="M1122.33 53.6667 1071.67 53.6667C1068.17 53.6667 1065.33 56.5072 1065.33 60L1065.33 98C1065.33 101.493 1068.17 104.333 1071.67 104.333L1122.33 104.333C1125.83 104.333 1128.67 101.493 1128.67 98L1128.67 60C1128.67 56.5072 1125.83 53.6667 1122.33 53.6667ZM1071.67 98 1071.67 60 1122.33 60 1122.34 98 1071.67 98Z" fill="#4335C6" fill-rule="nonzero" fill-opacity="1"/></g></g></g></g></g></svg>