<svg width="76" height="78" xmlns="http://www.w3.org/2000/svg" xmlns:xlink="http://www.w3.org/1999/xlink" xml:space="preserve" overflow="hidden"><g transform="translate(-226 -242)"><g><g><g><g><path d="M56.2125 68.75C59.6644 68.75 62.4625 65.9519 62.4625 62.5L62.4625 12.5C62.4625 9.04822 59.6644 6.25 56.2125 6.25L18.75 6.25C15.2982 6.25 12.5 9.04822 12.5 12.5L12.5 62.5C12.5 65.9519 15.2982 68.75 18.75 68.75L56.2125 68.75ZM28.125 15.625 46.875 15.625 46.875 21.875 28.125 21.875 28.125 15.625ZM44.5312 35.1562C44.5159 39.0337 41.3775 42.1734 37.5 42.1906 33.6406 42.1906 30.4688 39.0187 30.4688 35.1562 30.4688 31.2938 33.6406 28.125 37.5 28.125 41.3769 28.1404 44.5159 31.2794 44.5312 35.1562ZM23.4375 56.8375C23.4375 51.6375 29.775 46.2906 37.5 46.2906 45.225 46.2906 51.5625 51.6375 51.5625 56.8375L51.5625 58.5969 23.4375 58.5969 23.4375 56.8375Z" fill="#4337CA" fill-rule="nonzero" fill-opacity="1" transform="matrix(1 0 0 1.01333 227 243)"/></g></g></g></g></g></svg>